<svg xmlns="http://www.w3.org/2000/svg">
<symbol id="ic_alignCenter" viewBox="0 0 24 24">
<path d="M5 18V16.8333H19V18H5ZM8.18889 14.7917V13.625H15.8306V14.7917H8.18889ZM5 11.5833V10.4167H19V11.5833H5ZM8.18889 8.375V7.20833H15.8306V8.375H8.18889ZM5 5.16667V4H19V5.16667H5Z" fill="var(--path-fill, #262626)" />
</symbol>

<symbol id="ic_alignLeft" viewBox="0 0 24 24">
<path d="M19 18V16.8333H5V18H19ZM14.1583 14.7917V13.625H5V14.7917H14.1583ZM19 11.5833V10.4167H5V11.5833H19ZM14.1583 8.375V7.20833H5V8.375H14.1583ZM19 5.16667V4H5V5.16667H19Z" fill="var(--path-fill, #262626)" />
</symbol>

<symbol id="ic_alignRight" viewBox="0 0 24 24">
<path d="M5 18V16.8333H19V18H5ZM9.84167 14.7917V13.625H19V14.7917H9.84167ZM5 11.5833V10.4167H19V11.5833H5ZM9.84167 8.375V7.20833H19V8.375H9.84167ZM5 5.16667V4H19V5.16667H5Z" fill="var(--path-fill, #262626)" />
</symbol>

<symbol id="ic_arrowDown" viewBox="0 0 24 24">
<path d="M11.9996 20.27C11.8007 20.2698 11.6101 20.1907 11.4696 20.05L4.46956 13.05C4.28199 12.8571 4.2116 12.5787 4.2849 12.3198C4.35819 12.0609 4.56404 11.8608 4.8249 11.7948C5.08575 11.7289 5.36199 11.8071 5.54956 12L11.9996 18.45L18.4496 12C18.6365 11.7993 18.9181 11.7168 19.1838 11.7846C19.4496 11.8525 19.6571 12.06 19.7249 12.3257C19.7928 12.5914 19.7102 12.873 19.5096 13.06L12.5096 20.06C12.3724 20.1922 12.1901 20.2673 11.9996 20.27Z" fill="var(--path-fill, black)" />
<path d="M11.9996 20.26C11.5876 20.2546 11.2549 19.922 11.2496 19.51V4.51C11.2496 4.24205 11.3925 3.99446 11.6246 3.86048C11.8566 3.72651 12.1425 3.72651 12.3746 3.86048C12.6066 3.99446 12.7496 4.24205 12.7496 4.51V19.51C12.7442 19.922 12.4115 20.2546 11.9996 20.26Z" fill="var(--path-fill, black)" />
<path d="M11.9996 21C11.6019 20.9996 11.2206 20.8414 10.9396 20.56L3.93956 13.56C3.35414 12.9718 3.35638 12.0204 3.94456 11.435C4.53274 10.8496 5.48414 10.8518 6.06956 11.44L11.9996 17.39L17.9196 11.46C18.505 10.8718 19.4564 10.8696 20.0446 11.455C20.6327 12.0404 20.635 12.9918 20.0496 13.58L13.0496 20.58C12.7678 20.8516 12.391 21.0023 11.9996 21Z" fill="var(--path-fill, black)" />
<path d="M11.9996 21C11.1711 21 10.4996 20.3284 10.4996 19.5V4.5C10.4996 3.67157 11.1711 3 11.9996 3C12.828 3 13.4996 3.67157 13.4996 4.5V19.5C13.4996 20.3284 12.828 21 11.9996 21Z" fill="var(--path-fill, black)" />
</symbol>

<symbol id="ic_arrowDownCircle" viewBox="0 0 24 24">
<circle cx="12" cy="11.5" r="6.75" stroke-width="1.5" stroke="var(--circle-stroke, #262626)" />
<path d="M9 11L12 13L15 11" stroke-width="1.5" stroke-linecap="round" stroke="var(--path-stroke, #262626)" />
</symbol>

<symbol id="ic_arrowLeft" viewBox="0 0 40 40">
<path d="M23 14L17 20L23 26" stroke-width="1.8" stroke-linecap="round" stroke-linejoin="round" stroke="var(--path-stroke, #A3A3A3)" />
</symbol>

<symbol id="ic_arrowMainRight" viewBox="0 0 24 24">
<path d="M5 11.5H19M19 11.5L12.5 5M19 11.5L12.5 18" stroke-width="1.8" stroke-linecap="round" stroke="var(--path-stroke, #262626)" />
</symbol>

<symbol id="ic_arrowRight" viewBox="0 0 40 40">
<path d="M17 14L23 20L17 26" stroke-width="1.8" stroke-linecap="round" stroke-linejoin="round" stroke="var(--path-stroke, #262626)" />
</symbol>

<symbol id="ic_arrowUp" viewBox="0 0 24 24">
<circle cx="12" cy="11.5" r="6.75" stroke-width="1.5" stroke="var(--circle-stroke, #262626)" />
<path d="M9 12.5L12 10.5L15 12.5" stroke-width="1.5" stroke-linecap="round" stroke="var(--path-stroke, #262626)" />
</symbol>

<symbol id="ic_arrowWhite" viewBox="0 0 18 18">
<path d="M17.27 9C17.2698 9.19884 17.1907 9.38948 17.05 9.53L10.05 16.53C9.85708 16.7176 9.57874 16.788 9.31985 16.7147C9.06095 16.6414 8.86082 16.4355 8.79485 16.1747C8.72887 15.9138 8.80708 15.6376 9 15.45L15.45 9L9 2.55C8.79935 2.36303 8.71675 2.08144 8.78461 1.81571C8.85248 1.54998 9.05998 1.34248 9.32571 1.27461C9.59144 1.20675 9.87303 1.28934 10.06 1.49L17.06 8.49C17.1922 8.62715 17.2673 8.8095 17.27 9Z" fill="var(--path-fill, white)" />
<path d="M17.26 9C17.2546 9.41196 16.922 9.74461 16.51 9.75L1.51 9.75C1.24205 9.75 0.994455 9.60705 0.860481 9.375C0.726506 9.14295 0.726506 8.85705 0.860481 8.625C0.994455 8.39295 1.24205 8.25 1.51 8.25L16.51 8.25C16.922 8.25538 17.2546 8.58803 17.26 9Z" fill="var(--path-fill, white)" />
<path d="M18 9C17.9996 9.39769 17.8414 9.77896 17.56 10.06L10.56 17.06C9.97182 17.6454 9.02042 17.6432 8.435 17.055C7.84958 16.4668 7.85182 15.5154 8.44 14.93L14.39 9L8.46 3.08C7.87182 2.49458 7.86958 1.54318 8.455 0.954998C9.04042 0.366815 9.99182 0.364576 10.58 0.949998L17.58 7.95C17.8516 8.2318 18.0023 8.60861 18 9Z" fill="var(--path-fill, white)" />
<path d="M18 9C18 9.82842 17.3284 10.5 16.5 10.5L1.5 10.5C0.671573 10.5 -3.3523e-07 9.82843 -3.71442e-07 9C-4.07654e-07 8.17157 0.671572 7.5 1.5 7.5L16.5 7.5C17.3284 7.5 18 8.17157 18 9Z" fill="var(--path-fill, white)" />
</symbol>

<symbol id="ic_bellAlert" viewBox="0 0 24 24">
<circle cx="12.5" cy="18.5" r="2.5" fill="var(--circle-fill, #FFC117)" />
<path fill-rule="evenodd" clip-rule="evenodd" d="M20.4066 13.97C20.4094 14.5511 20.6649 15.1023 21.1066 15.48C22.6166 16.83 21.5466 19.14 19.4066 19.14H15.6066C15.114 20.4844 13.8383 21.3814 12.4066 21.39C10.9702 21.3962 9.68678 20.4938 9.20657 19.14H5.40657C3.26657 19.14 2.19657 16.83 3.70657 15.48C4.1482 15.1023 4.40369 14.5511 4.40657 13.97V9.14C4.40657 5.2 7.98657 2 12.4066 2C16.8266 2 20.4066 5.2 20.4066 9.14V13.97ZM10.8866 19.14C11.2505 19.611 11.8114 19.8878 12.4066 19.89C12.9877 19.8756 13.5314 19.6001 13.8866 19.14H10.8866Z" fill="var(--path-fill, black)" />
<circle cx="19" cy="4" r="3" fill="var(--circle-fill, #FFC117)" />
</symbol>

<symbol id="ic_bellEmpty" viewBox="0 0 24 24">
<circle cx="12.5" cy="18.5" r="2.5" fill="var(--circle-fill, #FFC117)" />
<path fill-rule="evenodd" clip-rule="evenodd" d="M20.4066 13.97C20.4094 14.5511 20.6649 15.1023 21.1066 15.48C22.6166 16.83 21.5466 19.14 19.4066 19.14H15.6066C15.114 20.4844 13.8383 21.3814 12.4066 21.39C10.9702 21.3962 9.68678 20.4938 9.20657 19.14H5.40657C3.26657 19.14 2.19657 16.83 3.70657 15.48C4.1482 15.1023 4.40369 14.5511 4.40657 13.97V9.14C4.40657 5.2 7.98657 2 12.4066 2C16.8266 2 20.4066 5.2 20.4066 9.14V13.97ZM10.8866 19.14C11.2505 19.611 11.8114 19.8878 12.4066 19.89C12.9877 19.8756 13.5314 19.6001 13.8866 19.14H10.8866Z" fill="var(--path-fill, black)" />
</symbol>

<symbol id="ic_bold" viewBox="0 0 24 24">
<path d="M7 18V4H12.561C13.6341 4 14.565 4.35 15.3537 5.05C16.1423 5.75 16.5366 6.63333 16.5366 7.7C16.5366 8.33333 16.3659 8.91667 16.0244 9.45C15.6829 9.98333 15.2276 10.3917 14.6585 10.675V10.825C15.3577 11.0583 15.9228 11.475 16.3537 12.075C16.7846 12.675 17 13.35 17 14.1C17 15.2333 16.5732 16.1667 15.7195 16.9C14.8659 17.6333 13.8699 18 12.7317 18H7ZM9.09756 9.925H12.4146C12.9837 9.925 13.4756 9.73333 13.8902 9.35C14.3049 8.96667 14.5122 8.48333 14.5122 7.9C14.5122 7.31667 14.3049 6.82917 13.8902 6.4375C13.4756 6.04583 12.9837 5.85 12.4146 5.85H9.09756V9.925ZM9.09756 16.1H12.6098C13.2276 16.1 13.7642 15.8917 14.2195 15.475C14.6748 15.0583 14.9024 14.5333 14.9024 13.9C14.9024 13.2833 14.6748 12.7667 14.2195 12.35C13.7642 11.9333 13.2276 11.725 12.6098 11.725H9.09756V16.1Z" fill="var(--path-fill, #262626)" />
</symbol>

<symbol id="ic_bulletList" viewBox="0 0 24 24">
<path d="M5.99167 18C5.71944 18 5.48611 17.8872 5.29167 17.6617C5.09722 17.4361 5 17.1678 5 16.8567C5 16.53 5.09722 16.25 5.29167 16.0167C5.48611 15.7833 5.71944 15.6667 5.99167 15.6667C6.25093 15.6667 6.47454 15.7833 6.6625 16.0167C6.85046 16.25 6.94444 16.53 6.94444 16.8567C6.94444 17.1678 6.85046 17.4361 6.6625 17.6617C6.47454 17.8872 6.25093 18 5.99167 18ZM8.88889 17.5333V16.1333H19V17.5333H8.88889ZM5.99167 12.1667C5.71944 12.1667 5.48611 12.0539 5.29167 11.8283C5.09722 11.6028 5 11.3267 5 11C5 10.6733 5.09722 10.3972 5.29167 10.1717C5.48611 9.94611 5.71944 9.83333 5.99167 9.83333C6.25093 9.83333 6.47454 9.95 6.6625 10.1833C6.85046 10.4167 6.94444 10.6889 6.94444 11C6.94444 11.3111 6.85046 11.5833 6.6625 11.8167C6.47454 12.05 6.25093 12.1667 5.99167 12.1667ZM8.88889 11.7V10.3H19V11.7H8.88889ZM5.97222 6.33333C5.7 6.33333 5.46991 6.22056 5.28194 5.995C5.09398 5.76944 5 5.49333 5 5.16667C5 4.84 5.09398 4.56389 5.28194 4.33833C5.46991 4.11278 5.7 4 5.97222 4C6.24444 4 6.47454 4.11278 6.6625 4.33833C6.85046 4.56389 6.94444 4.84 6.94444 5.16667C6.94444 5.49333 6.85046 5.76944 6.6625 5.995C6.47454 6.22056 6.24444 6.33333 5.97222 6.33333ZM8.88889 5.86667V4.46667H19V5.86667H8.88889Z" fill="var(--path-fill, #262626)" />
</symbol>

<symbol id="ic_calender" viewBox="0 0 28 28">
<path d="M2.27734 13.6667C2.27734 9.37163 2.27734 7.22412 3.61164 5.88983C4.94593 4.55554 7.09344 4.55554 11.3885 4.55554H15.944C20.239 4.55554 22.3865 4.55554 23.7208 5.88983C25.0551 7.22412 25.0551 9.37163 25.0551 13.6667V15.9444C25.0551 20.2394 25.0551 22.387 23.7208 23.7212C22.3865 25.0555 20.239 25.0555 15.944 25.0555H11.3885C7.09344 25.0555 4.94593 25.0555 3.61164 23.7212C2.27734 22.387 2.27734 20.2394 2.27734 15.9444V13.6667Z" stroke-width="2.5" stroke="var(--path-stroke, #4B4B4B)" />
<path d="M7.97266 4.55556V2.84723" stroke-width="2.5" stroke-linecap="round" stroke="var(--path-stroke, #4B4B4B)" />
<path d="M19.3613 4.55556V2.84723" stroke-width="2.5" stroke-linecap="round" stroke="var(--path-stroke, #4B4B4B)" />
<path d="M2.84766 10.25H24.4865" stroke-width="2.5" stroke-linecap="round" stroke="var(--path-stroke, #4B4B4B)" />
</symbol>

<symbol id="ic_chatBubbles" viewBox="0 0 140 140"
 >
  <path fill-rule="evenodd" clip-rule="evenodd" d="M44 20C30.7452 20 20 30.7452 20 44V45C20 56.9621 28.7514 66.8802 40.201 68.701L47.5 76L54.5 69H96C109.255 69 120 58.2548 120 45V44C120 30.7452 109.255 20 96 20H44Z" fill="var(--path-fill, #262626)" />
  <path fill-rule="evenodd" clip-rule="evenodd" d="M74.5 74C64.2827 74 56 82.2827 56 92.5C56 102.717 64.2827 111 74.5 111H86L94 119L102.007 110.993C111.99 110.725 120 102.548 120 92.5C120 82.2827 111.717 74 101.5 74H74.5Z" fill="var(--path-fill, #ffc117)" />
  <circle cx="58" cy="45" r="3" fill="var(--circle-fill, #ffc117)" />
  <circle cx="70" cy="45" r="3" fill="var(--circle-fill, #ffc117)" />
  <circle cx="82" cy="45" r="3" fill="var(--circle-fill, #ffc117)" />
  <circle cx="76" cy="93" r="3" fill="var(--circle-fill, #262626)" />
  <circle cx="88" cy="93" r="3" fill="var(--circle-fill, #262626)" />
  <circle cx="100" cy="93" r="3" fill="var(--circle-fill, #262626)" />
</symbol>

<symbol id="ic_check" viewBox="0 0 11 10">
<path d="M1.10718 5.34911L4.18753 8.50003L9.75004 1.35718" stroke-width="1.5" stroke-linecap="round" stroke-linejoin="round" stroke="var(--path-stroke, white)" />
</symbol>

<symbol id="ic_checkboxIn" viewBox="0 0 24 24">
<rect x="3" y="3" rx="2" fill="var(--rect-fill, #262626)" />
<path d="M8 11.25L11.4286 15L16 10" stroke-width="1.8" stroke-linecap="round" stroke="var(--path-stroke, white)" />
</symbol>

<symbol id="ic_checkboxOut" viewBox="0 0 24 24">
<rect x="3.5" y="3.5" rx="1.5" fill="var(--rect-fill, #F5F5F5)" stroke="var(--rect-stroke, #E5E5E5)" />
</symbol>

<symbol id="ic_circle" viewBox="0 0 40 40"
 >
  <circle class="circle" cx="20" cy="20" r="20" fill="var(--circle-fill, #D4D4D4)" />
</symbol>

<symbol id="ic_coloring" viewBox="0 0 24 24">
<path d="M8.55208 4.67118L9.17917 4L14.2542 9.43184C14.4778 9.67118 14.5896 9.96514 14.5896 10.3137C14.5896 10.6623 14.4778 10.9563 14.2542 11.1956L11.6583 13.974C11.4347 14.2133 11.1722 14.333 10.8708 14.333C10.5694 14.333 10.3069 14.2133 10.0833 13.974L7.4875 11.1956C7.26389 10.9563 7.15208 10.6623 7.15208 10.3137C7.15208 9.96514 7.26389 9.67118 7.4875 9.43184L10.2438 6.48179L8.55208 4.67118ZM10.8708 7.15297L7.96875 10.2591H13.7729L10.8708 7.15297ZM15.8 14.5983C15.5083 14.5983 15.2604 14.4891 15.0563 14.2706C14.8521 14.052 14.75 13.7867 14.75 13.4745C14.75 13.2976 14.7889 13.1051 14.8667 12.897C14.9444 12.6889 15.0514 12.4755 15.1875 12.257C15.2653 12.1217 15.3601 11.9761 15.4719 11.82C15.5837 11.6639 15.6931 11.5182 15.8 11.3829C15.9069 11.5182 16.0163 11.6639 16.1281 11.82C16.2399 11.9761 16.3347 12.1217 16.4125 12.257C16.5486 12.4755 16.6556 12.6889 16.7333 12.897C16.8111 13.1051 16.85 13.2976 16.85 13.4745C16.85 13.7867 16.7479 14.052 16.5438 14.2706C16.3396 14.4891 16.0917 14.5983 15.8 14.5983ZM6 19V17.1113H17.6667V19H6Z" fill="var(--path-fill, #262626)" />
</symbol>

<symbol id="ic_crown" viewBox="0 0 16 16">
<path d="M4.07955 6.0948L4.47648 10.7256C4.48978 10.8808 4.61963 11 4.77539 11H11.2246C11.3804 11 11.5102 10.8808 11.5235 10.7256L11.9204 6.0948C11.9453 5.80445 11.5834 5.65268 11.3938 5.87394L10.277 7.17678C10.142 7.3343 9.89172 7.31051 9.78879 7.13039L8.26047 4.45583C8.1453 4.25428 7.8547 4.25428 7.73953 4.45583L6.21121 7.13039C6.10828 7.31051 5.85797 7.3343 5.72296 7.17678L4.60624 5.87394C4.41659 5.65268 4.05467 5.80445 4.07955 6.0948Z" fill="var(--path-fill, #FFC117)" />
</symbol>

<symbol id="ic_deadline" viewBox="0 0 16 16">
<path d="M3.91483 2.66602L2.66602 3.91483" stroke-width="0.624408" stroke-linecap="round" stroke="var(--path-stroke, #262626)" />
<path d="M12.0324 2.66602L13.2812 3.91483" stroke-width="0.624408" stroke-linecap="round" stroke="var(--path-stroke, #262626)" />
<circle cx="7.97183" cy="7.9728" r="4.99527" fill="var(--circle-fill, #FFC117)" />
<path d="M7.97266 4.85059V7.92536C7.97266 7.95618 7.98178 7.98631 7.99887 8.01195L9.22147 9.84585" stroke-width="0.624408" stroke-linecap="round" stroke="var(--path-stroke, #262626)" />
</symbol>

<symbol id="ic_diagonal" viewBox="0 0 12 12">
<path d="M1 11L11 1M11 1H4.7037M11 1V8.03704" stroke-width="1.8" stroke-linecap="round" stroke="var(--path-stroke, #404040)" />
</symbol>

<symbol id="ic_document" viewBox="0 0 24 24">
<rect x="5" y="3" rx="2" fill="var(--rect-fill, #262626)" />
<path d="M9 9H15" stroke-width="1.4" stroke-linecap="round" stroke="var(--path-stroke, white)" />
<path d="M9 12H15" stroke-width="1.4" stroke-linecap="round" stroke="var(--path-stroke, white)" />
<path d="M9 15H15" stroke-width="1.4" stroke-linecap="round" stroke="var(--path-stroke, white)" />
</symbol>

<symbol id="ic_down" viewBox="0 0 16 9">
<path d="M1.25 1L8 7.75L14.75 1" stroke-width="1.5" stroke-linecap="round" stroke-linejoin="round" stroke="var(--path-stroke, black)" />
</symbol>

<symbol id="ic_eyeOff" viewBox="0 0 24 24">
<path d="M15.7736 12.973L14.6506 11.85C14.8211 10.9602 14.5871 10.2013 13.9486 9.57307C13.3102 8.94487 12.5441 8.70385 11.6506 8.85L10.5275 7.72695C10.7596 7.61925 10.9983 7.54168 11.2438 7.49425C11.4894 7.44681 11.7416 7.4231 12.0006 7.4231C13.1352 7.4231 14.0983 7.81893 14.89 8.6106C15.6816 9.40226 16.0775 10.3654 16.0775 11.5C16.0775 11.759 16.0553 12.0112 16.0111 12.2567C15.9669 12.5022 15.8877 12.741 15.7736 12.973ZM18.9544 16.0846L17.8506 15.05C18.4839 14.5667 19.0506 14.0292 19.5506 13.4375C20.0506 12.8458 20.4672 12.2 20.8006 11.5C19.9672 9.81666 18.7631 8.47916 17.1881 7.4875C15.6131 6.49583 13.8839 6 12.0006 6C11.5172 6 11.0464 6.03333 10.5881 6.1C10.1297 6.16666 9.66723 6.26666 9.20056 6.4L8.03521 5.23465C8.6711 4.98336 9.31949 4.79811 9.98039 4.67887C10.6413 4.55964 11.3147 4.50002 12.0006 4.50002C14.1493 4.50002 16.123 5.05835 17.9217 6.17502C19.7204 7.29169 21.1037 8.80258 22.0717 10.7077C22.1384 10.8346 22.1867 10.9625 22.2169 11.0913C22.247 11.2202 22.2621 11.3564 22.2621 11.5C22.2621 11.6436 22.2496 11.7798 22.2246 11.9086C22.1996 12.0375 22.1537 12.1654 22.0871 12.2923C21.7332 13.0449 21.289 13.7397 20.7544 14.3769C20.2198 15.0141 19.6198 15.5833 18.9544 16.0846ZM12.0006 18.5C9.89545 18.5 7.96597 17.9375 6.21214 16.8125C4.45829 15.6875 3.06405 14.2057 2.02944 12.3673C1.9461 12.2404 1.88521 12.1026 1.84676 11.9538C1.8083 11.8051 1.78906 11.6538 1.78906 11.5C1.78906 11.3461 1.80573 11.1974 1.83906 11.0538C1.8724 10.9103 1.93073 10.7699 2.01406 10.6327C2.38586 9.95321 2.80702 9.3061 3.27754 8.69135C3.74805 8.0766 4.28908 7.52564 4.90061 7.03847L2.64291 4.76537C2.50445 4.61665 2.43618 4.44005 2.43811 4.23557C2.44003 4.03109 2.51342 3.85641 2.65829 3.71155C2.80315 3.56668 2.9788 3.49425 3.18521 3.49425C3.39161 3.49425 3.56725 3.56668 3.71211 3.71155L20.289 20.2884C20.4275 20.4269 20.5009 20.5984 20.5092 20.8028C20.5175 21.0073 20.4441 21.1871 20.289 21.3423C20.1441 21.4871 19.9685 21.5596 19.7621 21.5596C19.5557 21.5596 19.3801 21.4871 19.2352 21.3423L15.716 17.8538C15.1262 18.082 14.5201 18.2468 13.8977 18.348C13.2753 18.4493 12.6429 18.5 12.0006 18.5ZM5.95444 8.09227C5.36854 8.54484 4.84193 9.05671 4.37461 9.62787C3.9073 10.199 3.51595 10.8231 3.20056 11.5C4.0339 13.1833 5.23806 14.5208 6.81306 15.5125C8.38806 16.5042 10.1172 17 12.0006 17C12.4301 17 12.8528 16.9711 13.2689 16.9134C13.6849 16.8558 14.098 16.7667 14.5083 16.6461L13.2429 15.35C13.0403 15.4384 12.8381 15.4984 12.6361 15.5298C12.4342 15.5612 12.2224 15.5769 12.0006 15.5769C10.866 15.5769 9.90283 15.1811 9.11116 14.3894C8.3195 13.5977 7.92366 12.6346 7.92366 11.5C7.92366 11.2782 7.94097 11.0663 7.97559 10.8644C8.0102 10.6625 8.06854 10.4602 8.15059 10.2577L5.95444 8.09227Z" fill="var(--path-fill, #A3A3A3)" />
</symbol>

<symbol id="ic_eyeOn" viewBox="0 0 24 24">
<path d="M12.0031 15.5769C13.1362 15.5769 14.0985 15.1803 14.8902 14.3872C15.6819 13.594 16.0777 12.6308 16.0777 11.4977C16.0777 10.3646 15.6811 9.40227 14.888 8.61061C14.0948 7.81894 13.1316 7.42311 11.9985 7.42311C10.8655 7.42311 9.90308 7.81969 9.11141 8.61286C8.31975 9.40604 7.92391 10.3692 7.92391 11.5023C7.92391 12.6354 8.3205 13.5977 9.11366 14.3894C9.90685 15.1811 10.87 15.5769 12.0031 15.5769ZM12.0008 14.2C11.2508 14.2 10.6133 13.9375 10.0883 13.4125C9.56331 12.8875 9.30081 12.25 9.30081 11.5C9.30081 10.75 9.56331 10.1125 10.0883 9.58751C10.6133 9.06251 11.2508 8.80001 12.0008 8.80001C12.7508 8.80001 13.3883 9.06251 13.9133 9.58751C14.4383 10.1125 14.7008 10.75 14.7008 11.5C14.7008 12.25 14.4383 12.8875 13.9133 13.4125C13.3883 13.9375 12.7508 14.2 12.0008 14.2ZM12.0008 18.5C9.8957 18.5 7.97039 17.9384 6.22489 16.8154C4.47937 15.6923 3.0861 14.2147 2.04509 12.3827C1.96175 12.2391 1.90085 12.0944 1.86239 11.9486C1.82392 11.8027 1.80469 11.653 1.80469 11.4995C1.80469 11.346 1.82392 11.1965 1.86239 11.051C1.90085 10.9055 1.96175 10.7609 2.04509 10.6173C3.0861 8.78528 4.47937 7.30772 6.22489 6.18466C7.97039 5.06157 9.8957 4.50003 12.0008 4.50003C14.1059 4.50003 16.0312 5.06157 17.7767 6.18466C19.5223 7.30772 20.9155 8.78528 21.9565 10.6173C22.0399 10.7609 22.1008 10.9056 22.1392 11.0515C22.1777 11.1973 22.1969 11.347 22.1969 11.5005C22.1969 11.654 22.1777 11.8035 22.1392 11.949C22.1008 12.0945 22.0399 12.2391 21.9565 12.3827C20.9155 14.2147 19.5223 15.6923 17.7767 16.8154C16.0312 17.9384 14.1059 18.5 12.0008 18.5ZM12.0008 17C13.8841 17 15.6133 16.5042 17.1883 15.5125C18.7633 14.5208 19.9675 13.1833 20.8008 11.5C19.9675 9.81667 18.7633 8.47917 17.1883 7.48751C15.6133 6.49584 13.8841 6.00001 12.0008 6.00001C10.1175 6.00001 8.38831 6.49584 6.81331 7.48751C5.23831 8.47917 4.03415 9.81667 3.20081 11.5C4.03415 13.1833 5.23831 14.5208 6.81331 15.5125C8.38831 16.5042 10.1175 17 12.0008 17Z" fill="var(--path-fill, #A3A3A3)" />
</symbol>

<symbol id="ic_filterBlack" viewBox="0 0 16 16">
<path d="M12.6673 2H3.33398C2.39118 2 1.91977 2 1.62688 2.2748C1.33398 2.5496 1.33398 2.99188 1.33398 3.87644V4.33632C1.33398 5.02821 1.33398 5.37416 1.50705 5.66095C1.68012 5.94773 1.9963 6.12572 2.62866 6.4817L4.57068 7.57492C4.99496 7.81376 5.2071 7.93318 5.35899 8.06505C5.67531 8.33966 5.87004 8.66234 5.95828 9.05811C6.00065 9.24816 6.00065 9.47054 6.00065 9.91529L6.00065 11.6949C6.00065 12.3013 6.00065 12.6045 6.1686 12.8409C6.33655 13.0772 6.63484 13.1938 7.23142 13.427C8.48384 13.9166 9.11005 14.1614 9.55535 13.8829C10.0007 13.6044 10.0007 12.9679 10.0007 11.6949V9.91529C10.0007 9.47054 10.0007 9.24816 10.043 9.05811C10.1313 8.66234 10.326 8.33966 10.6423 8.06505C10.7942 7.93318 11.0063 7.81376 11.4306 7.57492L13.3726 6.4817C14.005 6.12572 14.3212 5.94773 14.4943 5.66095C14.6673 5.37416 14.6673 5.02821 14.6673 4.33632V3.87644C14.6673 2.99188 14.6673 2.5496 14.3744 2.2748C14.0815 2 13.6101 2 12.6673 2Z" fill="var(--path-fill, #262626)" />
</symbol>

<symbol id="ic_filterWhite" viewBox="0 0 16 16">
<path d="M12.6673 2H3.33398C2.39118 2 1.91977 2 1.62688 2.2748C1.33398 2.5496 1.33398 2.99188 1.33398 3.87644V4.33632C1.33398 5.02821 1.33398 5.37416 1.50705 5.66095C1.68012 5.94773 1.9963 6.12572 2.62866 6.4817L4.57068 7.57492C4.99496 7.81376 5.2071 7.93318 5.35899 8.06505C5.67531 8.33966 5.87004 8.66234 5.95828 9.05811C6.00065 9.24816 6.00065 9.47054 6.00065 9.91529L6.00065 11.6949C6.00065 12.3013 6.00065 12.6045 6.1686 12.8409C6.33655 13.0772 6.63484 13.1938 7.23142 13.427C8.48384 13.9166 9.11005 14.1614 9.55535 13.8829C10.0007 13.6044 10.0007 12.9679 10.0007 11.6949V9.91529C10.0007 9.47054 10.0007 9.24816 10.043 9.05811C10.1313 8.66234 10.326 8.33966 10.6423 8.06505C10.7942 7.93318 11.0063 7.81376 11.4306 7.57492L13.3726 6.4817C14.005 6.12572 14.3212 5.94773 14.4943 5.66095C14.6673 5.37416 14.6673 5.02821 14.6673 4.33632V3.87644C14.6673 2.99188 14.6673 2.5496 14.3744 2.2748C14.0815 2 13.6101 2 12.6673 2Z" fill="var(--path-fill, #FAFAFA)" />
</symbol>

<symbol id="ic_firstRankWhite" viewBox="0 0 51 21">
<rect rx="10.5" fill="var(--rect-fill, #262626)" />
<path d="M21.8623 15.1367C19.5654 15.1367 18.2256 13.291 18.2256 10.0508C18.2256 6.83789 19.5928 4.96484 21.8623 4.96484C24.1318 4.96484 25.499 6.83789 25.499 10.0508C25.499 13.291 24.1455 15.1367 21.8623 15.1367ZM21.8623 13.8379C23.2021 13.8379 23.9951 12.5254 23.9951 10.0508C23.9951 7.58984 23.1885 6.23633 21.8623 6.23633C20.5361 6.23633 19.7295 7.58984 19.7295 10.0508C19.7295 12.5254 20.5225 13.8379 21.8623 13.8379ZM30.8174 5.10156V15H29.2998V6.60547H29.2451L26.8799 8.15039V6.71484L29.3408 5.10156H30.8174Z" fill="var(--path-fill, #F1F2F5)" />
</symbol>

<symbol id="ic_firstRankYellow" viewBox="0 0 51 21">
<rect rx="10.5" fill="var(--rect-fill, #262626)" />
<path d="M11.0796 8.0948L11.4765 12.7256C11.4898 12.8808 11.6196 13 11.7754 13H18.2246C18.3804 13 18.5102 12.8808 18.5235 12.7256L18.9204 8.0948C18.9453 7.80445 18.5834 7.65268 18.3938 7.87394L17.277 9.17678C17.142 9.3343 16.8917 9.31051 16.7888 9.13039L15.2605 6.45583C15.1453 6.25428 14.8547 6.25428 14.7395 6.45583L13.2112 9.13039C13.1083 9.31051 12.858 9.3343 12.723 9.17678L11.6062 7.87394C11.4166 7.65268 11.0547 7.80445 11.0796 8.0948Z" fill="var(--path-fill, #FFC117)" />
<path d="M29.3203 15.1367C27.0234 15.1367 25.6836 13.291 25.6836 10.0508C25.6836 6.83789 27.0508 4.96484 29.3203 4.96484C31.5898 4.96484 32.957 6.83789 32.957 10.0508C32.957 13.291 31.6035 15.1367 29.3203 15.1367ZM29.3203 13.8379C30.6602 13.8379 31.4531 12.5254 31.4531 10.0508C31.4531 7.58984 30.6465 6.23633 29.3203 6.23633C27.9941 6.23633 27.1875 7.58984 27.1875 10.0508C27.1875 12.5254 27.9805 13.8379 29.3203 13.8379ZM38.2754 5.10156V15H36.7578V6.60547H36.7031L34.3379 8.15039V6.71484L36.7988 5.10156H38.2754Z" fill="var(--path-fill, #FFC117)" />
</symbol>

<symbol id="ic_fourthRank" viewBox="0 0 51 21">
<rect rx="10.5" fill="var(--rect-fill, #262626)" />
<path d="M21.0566 15.1367C18.7598 15.1367 17.4199 13.291 17.4199 10.0508C17.4199 6.83789 18.7871 4.96484 21.0566 4.96484C23.3262 4.96484 24.6934 6.83789 24.6934 10.0508C24.6934 13.291 23.3398 15.1367 21.0566 15.1367ZM21.0566 13.8379C22.3965 13.8379 23.1895 12.5254 23.1895 10.0508C23.1895 7.58984 22.3828 6.23633 21.0566 6.23633C19.7305 6.23633 18.9238 7.58984 18.9238 10.0508C18.9238 12.5254 19.7168 13.8379 21.0566 13.8379ZM26.0332 13.0723V11.8555L30.4082 5.10156H32.2676V11.8008H33.6211V13.0723H32.2676V15H30.8457V13.0723H26.0332ZM27.6191 11.8008H30.8457V6.89258H30.7363L27.6191 11.7188V11.8008Z" fill="var(--path-fill, #FFC117)" />
</symbol>

<symbol id="ic_giveUp" viewBox="0 0 24 24">
<g clip-path="url(#clip0_1007_6635)">
<path fill-rule="evenodd" clip-rule="evenodd" d="M9.41236 3.51556C9.60276 3.95075 9.40431 4.45788 8.96913 4.64827L1.8393 7.76757V20.1893L7.78285 17.4156C8.2133 17.2147 8.72509 17.4008 8.92596 17.8313C9.12684 18.2617 8.94073 18.7735 8.51029 18.9744L1.34294 22.3191C1.07656 22.4435 0.765149 22.4231 0.517208 22.2652C0.269266 22.1073 0.119141 21.8337 0.119141 21.5398V7.20506C0.119141 6.86335 0.321427 6.55405 0.634485 6.41709L8.27966 3.07233C8.71484 2.88194 9.22197 3.08038 9.41236 3.51556Z" fill="var(--path-fill, #F24744)" />
<circle cx="3.84627" cy="13.4171" r="0.955646" fill="var(--circle-fill, #F24744)" />
<path fill-rule="evenodd" clip-rule="evenodd" d="M8.62375 3C8.14874 3 7.76367 3.38507 7.76367 3.86008V18.1948C7.76367 18.6698 8.14874 19.0549 8.62375 19.0549H17.2246C17.6996 19.0549 18.0847 18.6698 18.0847 18.1948V13H16.3645V17.3347H9.48384V4.72016H16.3645V9H18.0847V3.86008C18.0847 3.38507 17.6996 3 17.2246 3H8.62375Z" fill="var(--path-fill, #F24744)" />
<path d="M16 10.8226H23.1673M23.1673 10.8226L19.3448 7M23.1673 10.8226L19.3448 14.6452" stroke-width="1.72016" stroke-linecap="round" stroke-linejoin="round" stroke="var(--path-stroke, #F24744)" />
</g>
<defs>
<clipPath id="clip0_1007_6635">
<rect fill="var(--rect-fill, white)" />
</clipPath>
</defs>
</symbol>

<symbol id="ic_heartActive" viewBox="0 0 16 16">
<path d="M2.96646 9.2721L7.60154 13.6263C7.7612 13.7762 7.84103 13.8512 7.93516 13.8697C7.97755 13.878 8.02115 13.878 8.06354 13.8697C8.15766 13.8512 8.23749 13.7762 8.39716 13.6263L13.0322 9.2721C14.3363 8.04702 14.4947 6.03103 13.3979 4.61734L13.1917 4.35152C11.8795 2.66035 9.24577 2.94397 8.32379 4.87573C8.19356 5.1486 7.80514 5.1486 7.6749 4.87573C6.75293 2.94397 4.11916 2.66035 2.80705 4.35152L2.60081 4.61734C1.50398 6.03103 1.66235 8.04702 2.96646 9.2721Z" stroke-width="1.33333" fill="var(--path-fill, #FFC117)" stroke="var(--path-stroke, #262626)" />
</symbol>

<symbol id="ic_heartInactive" viewBox="0 0 24 24">
<path d="M4.45067 13.9087L11.4033 20.4399C11.6428 20.6649 11.7625 20.7774 11.9037 20.8051C11.9673 20.8176 12.0327 20.8176 12.0963 20.8051C12.2375 20.7774 12.3572 20.6649 12.5967 20.4399L19.5493 13.9087C21.5055 12.0711 21.743 9.04709 20.0978 6.92655L19.7885 6.52783C17.8203 3.99107 13.8696 4.4165 12.4867 7.31414C12.2913 7.72345 11.7087 7.72345 11.5133 7.31414C10.1304 4.4165 6.17972 3.99107 4.21154 6.52783L3.90219 6.92656C2.25695 9.04709 2.4945 12.0711 4.45067 13.9087Z" stroke-width="2" fill="var(--path-fill, white)" stroke="var(--path-stroke, #262626)" />
</symbol>

<symbol id="ic_italic" viewBox="0 0 24 24">
<path d="M5 18V15.8125H7.93571L11.75 6.1875H8.42857V4H17V6.1875H14.0643L10.25 15.8125H13.5714V18H5Z" fill="var(--path-fill, #262626)" />
</symbol>

<symbol id="ic_kebab" viewBox="0 0 24 24">
<ellipse cx="11.9" cy="11.9999" rx="0.9" ry="0.9" transform="rotate(-90 11.9 11.9999)" stroke-width="2" stroke-linecap="round" fill="var(--ellipse-fill, #A3A3A3)" stroke="var(--ellipse-stroke, #A3A3A3)" />
<ellipse cx="11.9" cy="18.8" rx="0.9" ry="0.9" transform="rotate(-90 11.9 18.8)" stroke-width="2" stroke-linecap="round" fill="var(--ellipse-fill, #A3A3A3)" stroke="var(--ellipse-stroke, #A3A3A3)" />
<ellipse cx="11.9" cy="5.19998" rx="0.9" ry="0.9" transform="rotate(-90 11.9 5.19998)" stroke-width="2" stroke-linecap="round" fill="var(--ellipse-fill, #A3A3A3)" stroke="var(--ellipse-stroke, #A3A3A3)" />
</symbol>

<symbol id="ic_keyboard" viewBox="0 0 32 32">
<circle cx="16" cy="16" r="16" fill="var(--circle-fill, #FFC117)" />
<path d="M4.99271 10.9388C5.02552 10.1349 5.68683 9.5 6.49146 9.5H25.5085C26.3132 9.5 26.9745 10.1349 27.0073 10.9388L27.4155 20.9388C27.4502 21.7905 26.7691 22.5 25.9167 22.5H6.0833C5.23087 22.5 4.54978 21.7905 4.58455 20.9388L4.99271 10.9388Z" fill="var(--path-fill, white)" stroke="var(--path-stroke, #262626)" />
<path d="M10 19H22.5" stroke-width="1.8" stroke-linecap="round" stroke="var(--path-stroke, #262626)" />
<rect x="10.3984" y="14.65" rx="0.16" fill="var(--rect-fill, #262626)" />
<rect x="11.998" y="12.25" rx="0.16" fill="var(--rect-fill, #262626)" />
<rect x="15.1992" y="12.25" rx="0.16" fill="var(--rect-fill, #262626)" />
<rect x="18.3984" y="12.25" rx="0.16" fill="var(--rect-fill, #262626)" />
<rect x="16.7988" y="14.6499" rx="0.16" fill="var(--rect-fill, #262626)" />
<rect x="13.5977" y="14.65" rx="0.16" fill="var(--rect-fill, #262626)" />
<rect x="19.998" y="14.6499" rx="0.16" fill="var(--rect-fill, #262626)" />
</symbol>

<symbol id="ic_line" viewBox="0 0 3 15">
<path d="M2.03125 0.09375V14.5938H0.875V0.09375H2.03125Z" fill="var(--path-fill, #E5E5E5)" />
</symbol>

<symbol id="ic_list" viewBox="0 0 24 24">
<rect x="5" y="6" fill="var(--rect-fill, #FFC117)" />
<path fill-rule="evenodd" clip-rule="evenodd" d="M3.46447 20.5355C4.92893 22 7.28595 22 12 22C16.714 22 19.0711 22 20.5355 20.5355C22 19.0711 22 16.714 22 12C22 7.28595 22 4.92893 20.5355 3.46447C19.0711 2 16.714 2 12 2C7.28595 2 4.92893 2 3.46447 3.46447C2 4.92893 2 7.28595 2 12C2 16.714 2 19.0711 3.46447 20.5355ZM14.75 16C14.75 16.4142 14.4142 16.75 14 16.75H10C9.58579 16.75 9.25 16.4142 9.25 16C9.25 15.5858 9.58579 15.25 10 15.25H14C14.4142 15.25 14.75 15.5858 14.75 16ZM16 12.75C16.4142 12.75 16.75 12.4142 16.75 12C16.75 11.5858 16.4142 11.25 16 11.25H8C7.58579 11.25 7.25 11.5858 7.25 12C7.25 12.4142 7.58579 12.75 8 12.75H16ZM18.75 8C18.75 8.41421 18.4142 8.75 18 8.75H6C5.58579 8.75 5.25 8.41421 5.25 8C5.25 7.58579 5.58579 7.25 6 7.25H18C18.4142 7.25 18.75 7.58579 18.75 8Z" fill="var(--path-fill, #262626)" />
</symbol>

<symbol id="ic_meatballsMenu" viewBox="0 0 24 24">
<ellipse cx="11.9" cy="11.9999" rx="0.9" ry="0.9" transform="rotate(-90 11.9 11.9999)" stroke-width="2" stroke-linecap="round" fill="var(--ellipse-fill, #A3A3A3)" stroke="var(--ellipse-stroke, #A3A3A3)" />
<ellipse cx="11.9" cy="18.8" rx="0.9" ry="0.9" transform="rotate(-90 11.9 18.8)" stroke-width="2" stroke-linecap="round" fill="var(--ellipse-fill, #A3A3A3)" stroke="var(--ellipse-stroke, #A3A3A3)" />
<ellipse cx="11.9" cy="5.19998" rx="0.9" ry="0.9" transform="rotate(-90 11.9 5.19998)" stroke-width="2" stroke-linecap="round" fill="var(--ellipse-fill, #A3A3A3)" stroke="var(--ellipse-stroke, #A3A3A3)" />
</symbol>

<symbol id="ic_medal" viewBox="0 0 16 16">
<rect x="4" y="3" rx="2.5" fill="var(--rect-fill, white)" />
<path fill-rule="evenodd" clip-rule="evenodd" d="M11.0912 5.78199L7.35789 9.51532L4.90923 7.06665C4.80464 6.95255 4.74815 6.80247 4.75151 6.64773C4.75488 6.49298 4.81786 6.34551 4.9273 6.23606C5.03675 6.12661 5.18422 6.06364 5.33897 6.06027C5.49371 6.0569 5.64379 6.1134 5.75789 6.21798L7.35789 7.81799L10.2426 4.93332C10.2983 4.87759 10.3644 4.83339 10.4372 4.80323C10.5101 4.77308 10.5881 4.75755 10.6669 4.75755C10.7457 4.75755 10.8237 4.77308 10.8965 4.80323C10.9693 4.83339 11.0355 4.87759 11.0912 4.93332C11.147 4.98904 11.1912 5.0552 11.2213 5.128C11.2515 5.20081 11.267 5.27885 11.267 5.35765C11.267 5.43646 11.2515 5.51449 11.2213 5.5873C11.1912 5.66011 11.147 5.72626 11.0912 5.78199ZM14.0979 7.04665C14.1604 6.98414 14.1955 6.89937 14.1955 6.81099C14.1955 6.7226 14.1604 6.63783 14.0979 6.57532L13.1312 5.60865C13.0898 5.56732 13.06 5.51577 13.0449 5.45922C13.0298 5.40268 13.0299 5.34314 13.0452 5.28665L13.3986 3.96665C13.4214 3.88125 13.4093 3.7903 13.365 3.71378C13.3208 3.63727 13.248 3.58147 13.1626 3.55865L11.8426 3.20532C11.7859 3.19014 11.7342 3.16026 11.6928 3.1187C11.6513 3.07714 11.6216 3.02538 11.6066 2.96865L11.2532 1.64865C11.2303 1.56321 11.1743 1.49037 11.0977 1.44612C11.0211 1.40188 10.93 1.38984 10.8446 1.41265L9.52389 1.76665C9.46744 1.78176 9.408 1.78171 9.35158 1.76649C9.29516 1.75127 9.24376 1.72143 9.20256 1.67998L8.23589 0.713318C8.17338 0.650828 8.08861 0.615723 8.00023 0.615723C7.91184 0.615723 7.82707 0.650828 7.76456 0.713318L6.79789 1.68065C6.75652 1.72204 6.705 1.75183 6.64848 1.76704C6.59197 1.78225 6.53245 1.78235 6.47589 1.76732L5.15589 1.41265C5.11356 1.40126 5.0694 1.39834 5.02594 1.40404C4.98248 1.40974 4.94057 1.42396 4.90261 1.44588C4.86465 1.46781 4.83138 1.497 4.80472 1.53179C4.77806 1.56659 4.75852 1.6063 4.74723 1.64865L4.39323 2.96865C4.37816 3.02518 4.34848 3.07675 4.30717 3.11817C4.26586 3.1596 4.21438 3.18943 4.15789 3.20465L2.83723 3.55865C2.75196 3.58161 2.67928 3.63748 2.63516 3.71397C2.59104 3.79047 2.57907 3.88134 2.60189 3.96665L2.95523 5.28665C2.97055 5.34314 2.97066 5.40268 2.95556 5.45922C2.94046 5.51577 2.91067 5.56732 2.86923 5.60865L1.90256 6.57532C1.87154 6.60623 1.84692 6.64295 1.83013 6.68339C1.81333 6.72384 1.80469 6.76719 1.80469 6.81099C1.80469 6.85478 1.81333 6.89813 1.83013 6.93858C1.84692 6.97902 1.87154 7.01574 1.90256 7.04665L2.86923 8.01332C2.91067 8.05479 2.94045 8.10645 2.95555 8.16311C2.97064 8.21976 2.97053 8.27939 2.95523 8.33598L2.60189 9.65598C2.57907 9.74129 2.59104 9.83217 2.63516 9.90867C2.67928 9.98516 2.75196 10.041 2.83723 10.064L4.15789 10.418C4.21438 10.4332 4.26586 10.463 4.30717 10.5045C4.34848 10.5459 4.37816 10.5975 4.39323 10.654L4.74656 11.974C4.75825 12.0168 4.77837 12.0568 4.80573 12.0917C4.83309 12.1266 4.86714 12.1557 4.90589 12.1773L3.66523 15.522H7.12056L7.99989 13.15L8.88056 15.522H12.3352L11.0946 12.1773C11.1333 12.1558 11.1673 12.1267 11.1946 12.0918C11.2218 12.0569 11.2418 12.0168 11.2532 11.974L11.6066 10.654C11.6216 10.5973 11.6514 10.5457 11.6928 10.5042C11.7343 10.4628 11.7859 10.433 11.8426 10.418L13.1626 10.0647C13.2049 10.0534 13.2446 10.0338 13.2794 10.0072C13.3142 9.98049 13.3434 9.94723 13.3653 9.90927C13.3872 9.87131 13.4015 9.8294 13.4072 9.78594C13.4129 9.74248 13.4099 9.69832 13.3986 9.65598L13.0452 8.33598C13.0299 8.2795 13.0298 8.21996 13.0449 8.16341C13.06 8.10686 13.0898 8.05531 13.1312 8.01398L14.0979 7.04732V7.04665Z" fill="var(--path-fill, #FFC117)" />
</symbol>

<symbol id="ic_monitor" viewBox="0 0 32 32">
<circle cx="16" cy="16" r="16" fill="var(--circle-fill, #FAFAFA)" />
<path d="M26.0005 14.5C26.0005 20.299 21.7472 25 16.5005 25C11.2537 25 7.00045 20.299 7.00045 14.5C7.00045 11.7628 5.44809 8.86904 7.00049 7C8.737 4.90929 13.7302 4 16.5005 4C21.7472 4 26.0005 8.70101 26.0005 14.5Z" fill="var(--path-fill, #737373)" />
<path d="M24.166 14.5C24.166 18.6421 20.8082 22 16.666 22C12.5239 22 9.16602 18.6421 9.16602 14.5C9.16602 10.3579 12.5239 7 16.666 7C20.8082 7 24.166 10.3579 24.166 14.5Z" fill="var(--path-fill, #E5E5E5)" />
<path fill-rule="evenodd" clip-rule="evenodd" d="M6.00977 28.4984C6.17337 24.8444 8.39782 21.694 11.6136 20.0572C12.9448 21.2644 14.7116 21.9998 16.6501 21.9998C18.5944 21.9998 20.366 21.26 21.6985 20.0464C24.6023 21.5163 26.7019 24.2189 27.2131 27.4134C24.326 30.2501 20.3674 31.9999 16.0001 31.9999C12.2208 31.9999 8.74747 30.6895 6.00977 28.4984Z" fill="var(--path-fill, #737373)" />
<ellipse cx="14.65" cy="14.75" rx="0.65" ry="0.75" fill="var(--ellipse-fill, #6E747B)" />
<ellipse cx="18.65" cy="14.75" rx="0.65" ry="0.75" fill="var(--ellipse-fill, #6E747B)" />
<circle cx="16" cy="16" r="16" fill="var(--circle-fill, #FFC117)" />
<path d="M15.834 25.8333V22.1667C15.834 22.0746 15.9086 22 16.0007 22H17.6945C17.8078 22 17.8905 22.1116 17.8744 22.2237C17.8077 22.6887 17.8716 23.5258 18.5007 24.383C18.7991 24.7896 19.1912 25.1108 19.5915 25.3572C19.7632 25.463 19.659 26 19.4574 26H16.0007C15.9086 26 15.834 25.9254 15.834 25.8333Z" fill="var(--path-fill, #262626)" />
<path d="M16.334 25.8333V22.1667C16.334 22.0746 16.2594 22 16.1673 22H14.4735C14.3602 22 14.2775 22.1116 14.2935 22.2237C14.3603 22.6887 14.2964 23.5258 13.6673 24.383C13.3689 24.7896 12.9768 25.1108 12.5765 25.3572C12.4048 25.463 12.509 26 12.7106 26H16.1673C16.2594 26 16.334 25.9254 16.334 25.8333Z" fill="var(--path-fill, #262626)" />
<rect x="4.5" y="8.5" rx="1.5" fill="var(--rect-fill, white)" stroke="var(--rect-stroke, #262626)" />
<path d="M12.0796 13.0948L12.4765 17.7256C12.4898 17.8808 12.6196 18 12.7754 18H19.2246C19.3804 18 19.5102 17.8808 19.5235 17.7256L19.9204 13.0948C19.9453 12.8045 19.5834 12.6527 19.3938 12.8739L18.277 14.1768C18.142 14.3343 17.8917 14.3105 17.7888 14.1304L16.2605 11.4558C16.1453 11.2543 15.8547 11.2543 15.7395 11.4558L14.2112 14.1304C14.1083 14.3105 13.858 14.3343 13.723 14.1768L12.6062 12.8739C12.4166 12.6527 12.0547 12.8045 12.0796 13.0948Z" fill="var(--path-fill, #262626)" />
</symbol>

<symbol id="ic_numberList" viewBox="0 0 24 24">
<path d="M5 18V17.2562H6.63333V16.6875H5.81667V15.9437H6.63333V15.375H5V14.6312H7.29444V18H5ZM9.06389 16.9281V15.6156H19V16.9281H9.06389ZM5 12.6844V11.9844L6.45833 10.0594H5V9.31562H7.29444V10.0156L5.81667 11.9406H7.29444V12.6844H5ZM9.06389 11.6125V10.3H19V11.6125H9.06389ZM5.81667 7.4125V4.74375H5V4H6.47778V7.4125H5.81667ZM9.06389 6.29688V4.98438H19V6.29688H9.06389Z" fill="var(--path-fill, #262626)" />
</symbol>

<symbol id="ic_out" viewBox="0 0 24 24">
<path d="M5 5C6.2 6.2 14.5 14.5 18.5 18.5" stroke-width="1.8" stroke-linecap="round" stroke="var(--path-stroke, #525252)" />
<path d="M18.5 5C17.3 6.2 9 14.5 5 18.5" stroke-width="1.8" stroke-linecap="round" stroke="var(--path-stroke, #525252)" />
</symbol>

<symbol id="ic_outCircle" viewBox="0 0 24 24">
<circle cx="12" cy="12" r="12" fill-opacity="0.8" fill="var(--circle-fill, #F6F8FA)" />
<path d="M8.0498 8.0498C8.7698 8.7698 13.7498 13.7498 16.1498 16.1498" stroke-width="1.08" stroke-linecap="round" stroke="var(--path-stroke, #525252)" />
<path d="M16.1494 8.0498C15.4294 8.7698 10.4494 13.7498 8.04941 16.1498" stroke-width="1.08" stroke-linecap="round" stroke="var(--path-stroke, #525252)" />
</symbol>

<symbol id="ic_person" viewBox="0 0 16 16">
<circle cx="11.334" cy="6" r="2" fill="var(--circle-fill, #262626)" />
<circle cx="4.66602" cy="6" r="2" fill="var(--circle-fill, #262626)" />
<path fill-rule="evenodd" clip-rule="evenodd" d="M11.7116 11.9997H13.2626C13.657 11.9997 13.9595 11.6598 13.8637 11.2772C13.6182 10.2969 12.9646 8.66638 11.3326 8.66638C10.7419 8.66638 10.2794 8.88003 9.91797 9.19914C10.9231 9.85128 11.4429 10.9932 11.7116 11.9997Z" fill="var(--path-fill, #262626)" />
<path fill-rule="evenodd" clip-rule="evenodd" d="M6.08074 9.19913C5.71935 8.88002 5.25682 8.66638 4.6661 8.66638C3.03415 8.66638 2.38054 10.2969 2.13505 11.2772C2.03924 11.6598 2.34167 11.9997 2.73608 11.9997H4.28712C4.55585 10.9932 5.07557 9.85127 6.08074 9.19913Z" fill="var(--path-fill, #262626)" />
<circle cx="8.00065" cy="6.00004" r="2.66667" fill="var(--circle-fill, #FFC117)" />
<path d="M7.99935 9.33337C10.4718 9.33337 11.1103 11.534 11.2753 12.6708C11.3281 13.0351 11.0342 13.3334 10.666 13.3334H5.33268C4.96449 13.3334 4.67058 13.0351 4.72344 12.6708C4.88836 11.534 5.52691 9.33337 7.99935 9.33337Z" fill="var(--path-fill, #FFC117)" />
</symbol>

<symbol id="ic_personWhite" viewBox="0 0 16 16">
<circle cx="11.334" cy="6" r="2" fill="var(--circle-fill, #262626)" />
<circle cx="4.66602" cy="6" r="2" fill="var(--circle-fill, #262626)" />
<path fill-rule="evenodd" clip-rule="evenodd" d="M11.7116 11.9997H13.2626C13.657 11.9997 13.9595 11.6598 13.8637 11.2772C13.6182 10.2969 12.9646 8.66638 11.3326 8.66638C10.7419 8.66638 10.2794 8.88003 9.91797 9.19914C10.9231 9.85128 11.4429 10.9932 11.7116 11.9997Z" fill="var(--path-fill, #262626)" />
<path fill-rule="evenodd" clip-rule="evenodd" d="M6.08074 9.19913C5.71935 8.88002 5.25682 8.66638 4.6661 8.66638C3.03415 8.66638 2.38054 10.2969 2.13505 11.2772C2.03924 11.6598 2.34167 11.9997 2.73608 11.9997H4.28712C4.55585 10.9932 5.07557 9.85127 6.08074 9.19913Z" fill="var(--path-fill, #262626)" />
<circle cx="8.00065" cy="6.00004" r="2.66667" fill="var(--circle-fill, white)" />
<path d="M7.99935 9.33337C10.4718 9.33337 11.1103 11.534 11.2753 12.6708C11.3281 13.0351 11.0342 13.3334 10.666 13.3334H5.33268C4.96449 13.3334 4.67058 13.0351 4.72344 12.6708C4.88836 11.534 5.52691 9.33337 7.99935 9.33337Z" fill="var(--path-fill, white)" />
</symbol>

<symbol id="ic_plus" viewBox="0 0 16 16">
<path d="M2 8H14" stroke-width="1.8" stroke-linecap="round" stroke="var(--path-stroke, white)" />
<path d="M8 14L8 2" stroke-width="1.8" stroke-linecap="round" stroke="var(--path-stroke, white)" />
</symbol>

<symbol id="ic_radioIn" viewBox="0 0 24 24">
<circle cx="12" cy="12" r="9" fill="var(--circle-fill, #262626)" />
<circle cx="12" cy="12" r="4" fill="var(--circle-fill, white)" />
</symbol>

<symbol id="ic_radioOut" viewBox="0 0 24 24">
<circle cx="12" cy="12" r="8.5" fill="var(--circle-fill, #F5F5F5)" stroke="var(--circle-stroke, #E5E5E5)" />
</symbol>

<symbol id="ic_search" viewBox="0 0 24 24">
<path d="M16.5 16L19.5 19" stroke-width="1.8" stroke-linecap="round" stroke="var(--path-stroke, #262626)" />
<circle cx="11.5" cy="11" r="6.6" stroke-width="1.8" stroke="var(--circle-stroke, #262626)" />
</symbol>

<symbol id="ic_secondRank" viewBox="0 0 51 21">
<rect rx="10.5" fill="var(--rect-fill, #262626)" />
<path d="M21.3369 15.1367C19.04 15.1367 17.7002 13.291 17.7002 10.0508C17.7002 6.83789 19.0674 4.96484 21.3369 4.96484C23.6064 4.96484 24.9736 6.83789 24.9736 10.0508C24.9736 13.291 23.6201 15.1367 21.3369 15.1367ZM21.3369 13.8379C22.6768 13.8379 23.4697 12.5254 23.4697 10.0508C23.4697 7.58984 22.6631 6.23633 21.3369 6.23633C20.0107 6.23633 19.2041 7.58984 19.2041 10.0508C19.2041 12.5254 19.9971 13.8379 21.3369 13.8379ZM26.5322 15V13.9062L29.9639 10.4473C31.0439 9.3125 31.5908 8.68359 31.5908 7.82227C31.5908 6.85156 30.7979 6.22266 29.7588 6.22266C28.665 6.22266 27.9541 6.91992 27.9541 7.97266H26.5322C26.5186 6.16797 27.8994 4.96484 29.7861 4.96484C31.7002 4.96484 33.0127 6.16797 33.0264 7.78125C33.0127 8.88867 32.4932 9.76367 30.6338 11.5957L28.624 13.6328V13.7148H33.1904V15H26.5322Z" fill="var(--path-fill, #FFC117)" />
</symbol>

<symbol id="ic_thirdRank" viewBox="0 0 51 21">
<rect rx="10.5" fill="var(--rect-fill, #262626)" />
<path d="M21.1318 15.1367C18.835 15.1367 17.4951 13.291 17.4951 10.0508C17.4951 6.83789 18.8623 4.96484 21.1318 4.96484C23.4014 4.96484 24.7686 6.83789 24.7686 10.0508C24.7686 13.291 23.415 15.1367 21.1318 15.1367ZM21.1318 13.8379C22.4717 13.8379 23.2646 12.5254 23.2646 10.0508C23.2646 7.58984 22.458 6.23633 21.1318 6.23633C19.8057 6.23633 18.999 7.58984 18.999 10.0508C18.999 12.5254 19.792 13.8379 21.1318 13.8379ZM29.8408 15.1367C27.79 15.1367 26.3271 14.0293 26.2725 12.416H27.8037C27.8584 13.291 28.7197 13.8379 29.8271 13.8379C31.0166 13.8379 31.8916 13.1816 31.8916 12.2246C31.8916 11.2539 31.0713 10.543 29.6631 10.543H28.8154V9.3125H29.6631C30.7842 9.3125 31.5771 8.68359 31.5771 7.74023C31.5771 6.83789 30.9072 6.22266 29.8545 6.22266C28.8564 6.22266 27.9814 6.76953 27.9404 7.67188H26.4912C26.5322 6.05859 28.0225 4.96484 29.8682 4.96484C31.8096 4.96484 33.04 6.19531 33.0264 7.6582C33.04 8.7793 32.3428 9.59961 31.2764 9.85938V9.92773C32.6299 10.1191 33.4092 11.0215 33.4092 12.2793C33.4092 13.9336 31.8916 15.1367 29.8408 15.1367Z" fill="var(--path-fill, #FFC117)" />
</symbol>

<symbol id="ic_toggleDown" viewBox="0 0 24 24">
<path d="M11.4372 15.443C11.749 15.7516 12.251 15.7516 12.5628 15.443L16.6794 11.3686C17.1874 10.8658 16.8314 10 16.1166 10H7.88336C7.16865 10 6.81262 10.8658 7.3206 11.3686L11.4372 15.443Z" fill="var(--path-fill, #262626)" />
</symbol>

<symbol id="ic_toggleUp" viewBox="0 0 24 24">
<path d="M11.4372 8.55699C11.749 8.24845 12.251 8.24845 12.5628 8.55699L16.6794 12.6314C17.1874 13.1342 16.8314 14 16.1166 14H7.88336C7.16865 14 6.81262 13.1342 7.3206 12.6314L11.4372 8.55699Z" fill="var(--path-fill, #262626)" />
</symbol>

<symbol id="ic_underline" viewBox="0 0 24 24">
<path d="M5 19V17.75H17V19H5ZM11 15.6667C9.55714 15.6667 8.33929 15.1875 7.34643 14.2292C6.35357 13.2708 5.85714 12.0972 5.85714 10.7083V4H7.57143V10.75C7.57143 11.6667 7.9 12.4375 8.55714 13.0625C9.21429 13.6875 10.0286 14 11 14C11.9714 14 12.7857 13.6875 13.4429 13.0625C14.1 12.4375 14.4286 11.6667 14.4286 10.75V4H16.1429V10.7083C16.1429 12.0972 15.6464 13.2708 14.6536 14.2292C13.6607 15.1875 12.4429 15.6667 11 15.6667Z" fill="var(--path-fill, #262626)" />
</symbol>

<symbol id="ic_up" viewBox="0 0 16 9">
  <path d="M1.25 8.75L8 2.25L14.75 8.75" stroke-width="1.5" stroke-linecap="round" stroke-linejoin="round" stroke="var(--path-stroke, black)" />
</symbol>

</svg>