<svg xmlns="http://www.w3.org/2000/svg">
  <symbol id="img_black" viewBox="0 0 25 24" fill="none"
    xmlns="http://www.w3.org/2000/svg">
    <circle cx="12.5" cy="12" r="12" fill="#262626"/>
  </symbol>

  <symbol id="img_check" viewBox="0 0 11 10" fill="none"
    xmlns="http://www.w3.org/2000/svg">
    <path d="M1.10718 5.34911L4.18753 8.50003L9.75004 1.35718" stroke="white" stroke-width="1.5" stroke-linecap="round" stroke-linejoin="round"/>
  </symbol>

  <symbol id="img_logo" viewBox="0 0 120 28" fill="none"
    xmlns="http://www.w3.org/2000/svg">
    <g clip-path="url(#clip0_3_47579)">
      <path d="M41.9576 21.2027L39.452 22.6499H30.1856V7.5299H39.452L41.9576 8.9771V21.2027ZM33.2096 10.1219V20.0579H38.9336V10.1219H33.2096ZM55.4123 21.3107L52.9067 22.7579H48.3059L45.8003 21.3107V13.1891L48.3059 11.7419H52.9067L55.4123 13.1891V21.3107ZM48.7595 14.2691V20.2307H52.4531V14.2691H48.7595ZM61.9956 14.3771V20.1227H67.3524V22.6499H61.542L59.0364 21.2027V13.2971L61.542 11.8499H67.3524V14.3771H61.9956ZM69.6789 14.3771V11.8499H71.6661V10.0355L74.6253 8.3291V11.8499H77.0013V14.3771H74.6253V20.1227H77.0013V22.6499H74.1717L71.6661 21.2027V14.3771H69.6789ZM83.1523 22.6499H80.1931V6.8819H83.1523V12.6275L84.6859 11.7419H87.5155L90.0211 13.1891V22.6499H87.0619V14.2691H83.1523V22.6499ZM100.336 14.3771H96.6204V22.6499H93.6612V11.8499H96.102L96.6204 12.7355L98.154 11.8499H100.336V14.3771ZM102.89 21.3107V11.8499H105.849V20.2307H109.542V11.8499H112.502V22.7579H110.061L109.542 21.8723L108.009 22.7579H105.395L102.89 21.3107Z" fill="#525252"/>
      <rect x="5.39844" y="3.87488" rx="1.35" fill="#262626"/>
      <path d="M16.5359 10.6249L18.8984 13.578L16.5359 16.5311" stroke="#FFC117" stroke-width="1.62"/>
      <path d="M11.8117 10.6249L9.44922 13.578L11.8117 16.5311" stroke="#FFC117" stroke-width="1.62"/>
    </g>
    <defs>
      <clipPath id="clip0_3_47579">
        <rect fill="white" transform="translate(0 0.5)"/>
      </clipPath>
    </defs>
  </symbol>

  <symbol id="img_profile_admin" viewBox="0 0 32 32" fill="none"
    xmlns="http://www.w3.org/2000/svg">
    <circle cx="16" cy="16" r="16" fill="#FAFAFA"/>
    <circle cx="16" cy="16" r="16" fill="#FAFAFA"/>
    <path d="M26.0005 14.5C26.0005 20.299 21.7472 25 16.5005 25C11.2537 25 7.00045 20.299 7.00045 14.5C7.00045 11.7628 5.44809 8.86904 7.00049 7C8.737 4.90929 13.7302 4 16.5005 4C21.7472 4 26.0005 8.70101 26.0005 14.5Z" fill="#737373"/>
    <path d="M24.166 14.5C24.166 18.6421 20.8082 22 16.666 22C12.5239 22 9.16602 18.6421 9.16602 14.5C9.16602 10.3579 12.5239 7 16.666 7C20.8082 7 24.166 10.3579 24.166 14.5Z" fill="#E5E5E5"/>
    <path fill-rule="evenodd" clip-rule="evenodd" d="M6.00977 28.4984C6.17337 24.8444 8.39782 21.694 11.6136 20.0572C12.9448 21.2644 14.7116 21.9998 16.6501 21.9998C18.5944 21.9998 20.366 21.26 21.6985 20.0464C24.6023 21.5163 26.7019 24.2189 27.2131 27.4134C24.326 30.2501 20.3674 31.9999 16.0001 31.9999C12.2208 31.9999 8.74747 30.6895 6.00977 28.4984Z" fill="#737373"/>
    <ellipse cx="14.65" cy="14.75" rx="0.65" ry="0.75" fill="#6E747B"/>
    <ellipse cx="18.65" cy="14.75" rx="0.65" ry="0.75" fill="#6E747B"/>
    <circle cx="16" cy="16" r="16" fill="#FFC117"/>
    <path d="M15.834 25.8333V22.1667C15.834 22.0746 15.9086 22 16.0007 22H17.6945C17.8078 22 17.8905 22.1116 17.8744 22.2237C17.8077 22.6887 17.8716 23.5258 18.5007 24.383C18.7991 24.7896 19.1912 25.1108 19.5915 25.3572C19.7632 25.463 19.659 26 19.4574 26H16.0007C15.9086 26 15.834 25.9254 15.834 25.8333Z" fill="#262626"/>
    <path d="M16.334 25.8333V22.1667C16.334 22.0746 16.2594 22 16.1673 22H14.4735C14.3602 22 14.2775 22.1116 14.2935 22.2237C14.3603 22.6887 14.2964 23.5258 13.6673 24.383C13.3689 24.7896 12.9768 25.1108 12.5765 25.3572C12.4048 25.463 12.509 26 12.7106 26H16.1673C16.2594 26 16.334 25.9254 16.334 25.8333Z" fill="#262626"/>
    <rect x="4.5" y="8.5" rx="1.5" fill="white" stroke="#262626"/>
    <path d="M12.0796 13.0948L12.4765 17.7256C12.4898 17.8808 12.6196 18 12.7754 18H19.2246C19.3804 18 19.5102 17.8808 19.5235 17.7256L19.9204 13.0948C19.9453 12.8045 19.5834 12.6527 19.3938 12.8739L18.277 14.1768C18.142 14.3343 17.8917 14.3105 17.7888 14.1304L16.2605 11.4558C16.1453 11.2543 15.8547 11.2543 15.7395 11.4558L14.2112 14.1304C14.1083 14.3105 13.858 14.3343 13.723 14.1768L12.6062 12.8739C12.4166 12.6527 12.0547 12.8045 12.0796 13.0948Z" fill="#262626"/>
  </symbol>

  <symbol id="img_profile_member" viewBox="0 0 32 32" fill="none"
    xmlns="http://www.w3.org/2000/svg">
    <circle cx="16" cy="16" r="16" fill="#FAFAFA"/>
    <path d="M26.0005 14.5C26.0005 20.299 21.7472 25 16.5005 25C11.2537 25 7.00045 20.299 7.00045 14.5C7.00045 11.7628 5.44809 8.86904 7.00049 7C8.737 4.90929 13.7302 4 16.5005 4C21.7472 4 26.0005 8.70101 26.0005 14.5Z" fill="#737373"/>
    <path d="M24.166 14.5C24.166 18.6421 20.8082 22 16.666 22C12.5239 22 9.16602 18.6421 9.16602 14.5C9.16602 10.3579 12.5239 7 16.666 7C20.8082 7 24.166 10.3579 24.166 14.5Z" fill="#E5E5E5"/>
    <path fill-rule="evenodd" clip-rule="evenodd" d="M6.00977 28.4984C6.17337 24.8444 8.39782 21.694 11.6136 20.0572C12.9448 21.2644 14.7116 21.9998 16.6501 21.9998C18.5944 21.9998 20.366 21.26 21.6985 20.0464C24.6023 21.5163 26.7019 24.2189 27.2131 27.4134C24.326 30.2501 20.3674 31.9999 16.0001 31.9999C12.2208 31.9999 8.74747 30.6895 6.00977 28.4984Z" fill="#737373"/>
    <ellipse cx="14.65" cy="14.75" rx="0.65" ry="0.75" fill="#6E747B"/>
    <ellipse cx="18.65" cy="14.75" rx="0.65" ry="0.75" fill="#6E747B"/>
    <circle cx="16" cy="16" r="16" fill="#FFC117"/>
    <path d="M4.99271 10.9388C5.02552 10.1349 5.68683 9.5 6.49146 9.5H25.5085C26.3132 9.5 26.9745 10.1349 27.0073 10.9388L27.4155 20.9388C27.4502 21.7905 26.7691 22.5 25.9167 22.5H6.0833C5.23087 22.5 4.54978 21.7905 4.58455 20.9388L4.99271 10.9388Z" fill="white" stroke="#262626"/>
    <path d="M10 19H22.5" stroke="#262626" stroke-width="1.8" stroke-linecap="round"/>
    <rect x="10.3984" y="14.65" rx="0.16" fill="#262626"/>
    <rect x="11.998" y="12.25" rx="0.16" fill="#262626"/>
    <rect x="15.1992" y="12.25" rx="0.16" fill="#262626"/>
    <rect x="18.3984" y="12.25" rx="0.16" fill="#262626"/>
    <rect x="16.7988" y="14.6499" rx="0.16" fill="#262626"/>
    <rect x="13.5977" y="14.65" rx="0.16" fill="#262626"/>
    <rect x="19.998" y="14.6499" rx="0.16" fill="#262626"/>
  </symbol>

</svg>