<svg xmlns="http://www.w3.org/2000/svg">
<symbol id="img_black" viewBox="0 0 25 24" fill="none">
<circle cx="12.5" cy="12" r="12" fill="#262626"/>
</symbol>

<?xml version="1.0" standalone="no"?>
<!DOCTYPE svg PUBLIC "-//W3C//DTD SVG 20010904//EN"
 "http://www.w3.org/TR/2001/REC-SVG-20010904/DTD/svg10.dtd">
<symbol id="img_book" viewBox="0 0 1280.000000 1280.000000"
 preserveAspectRatio="xMidYMid meet">
<metadata>
Created by potrace 1.15, written by Peter Selinger 2001-2017
</metadata>
<g transform="translate(0.000000,1280.000000) scale(0.100000,-0.100000)"
fill="#000000" stroke="none">
<path d="M8560 9654 c-19 -2 -98 -9 -175 -15 -77 -6 -203 -21 -281 -34 -436
-74 -706 -194 -925 -414 -53 -53 -108 -112 -122 -131 l-27 -35 -26 35 c-104
137 -325 310 -495 388 -490 226 -1392 266 -2489 111 -200 -28 -619 -101 -754
-131 l-60 -13 -178 -255 c-143 -204 -183 -256 -206 -261 -15 -4 -196 -14 -402
-23 -451 -20 -458 -20 -470 -49 -5 -12 -25 -272 -45 -577 -20 -305 -47 -715
-60 -910 -14 -195 -49 -728 -80 -1185 -30 -456 -62 -927 -70 -1045 -8 -118
-33 -485 -55 -815 -22 -330 -42 -629 -45 -665 -2 -36 -10 -139 -16 -230 l-11
-165 58 -153 c33 -85 66 -157 74 -162 8 -4 308 12 665 36 1105 73 1393 92
2250 149 457 30 976 65 1155 77 l325 21 150 -51 c278 -95 488 -143 710 -163
291 -26 621 32 928 163 114 49 127 52 197 50 41 -1 1029 -61 2194 -133 1730
-106 2122 -128 2131 -117 7 7 36 80 65 162 l53 148 -62 877 c-109 1547 -218
3094 -277 3936 -40 581 -61 824 -70 834 -10 11 -83 17 -321 27 -169 7 -357 15
-418 18 -60 3 -128 6 -151 6 l-40 0 -173 239 c-137 191 -177 241 -199 245
-368 76 -891 154 -1283 192 -153 14 -878 28 -969 18z m840 -649 c312 -28 741
-83 996 -126 l61 -11 7 -121 c3 -67 11 -214 16 -327 42 -887 70 -1490 75
-1570 11 -209 17 -330 45 -940 16 -349 32 -668 35 -709 l6 -73 -33 4 c-18 3
-143 21 -278 41 -496 73 -763 92 -1330 92 -469 0 -580 -6 -830 -46 -344 -54
-645 -180 -887 -370 -35 -27 -67 -49 -73 -49 -6 0 -10 476 -12 1393 -4 2037
-4 2004 10 2072 60 277 171 424 414 550 197 102 480 173 818 205 144 13 757 4
960 -15z m-3620 -4 c147 -18 335 -59 447 -96 339 -113 536 -298 625 -587 l23
-73 3 -1718 c2 -1385 0 -1717 -10 -1710 -7 4 -52 34 -100 66 -275 183 -636
297 -1108 353 -185 21 -677 29 -915 15 -338 -21 -744 -63 -1119 -116 -94 -14
-171 -23 -173 -21 -2 2 3 149 11 327 9 178 22 482 31 674 8 193 17 397 20 455
13 268 16 347 30 665 8 187 24 536 35 775 11 239 22 516 26 615 4 99 10 189
15 201 6 16 21 23 76 32 37 7 133 23 213 37 274 47 599 87 865 105 88 6 180
12 205 14 97 8 710 -3 800 -13z m-2585 -668 c-3 -49 -14 -272 -25 -498 -11
-225 -27 -540 -35 -700 -18 -344 -49 -980 -70 -1405 -16 -322 -21 -418 -31
-595 l-7 -109 -150 -226 c-82 -124 -154 -229 -159 -235 -10 -9 -6 166 7 360 3
39 12 196 20 350 8 154 24 447 35 650 11 204 29 541 40 750 11 209 27 506 35
660 8 154 17 316 20 360 2 44 8 132 11 195 l7 115 151 207 c83 115 152 208
154 208 2 0 1 -39 -3 -87z m7844 -136 l149 -208 6 -92 c3 -51 15 -252 26 -447
11 -195 29 -512 40 -705 59 -1028 83 -1437 95 -1665 3 -52 10 -162 15 -245 5
-82 10 -174 10 -204 l0 -54 -164 237 -164 236 -6 88 c-4 48 -18 303 -31 567
-14 264 -39 732 -55 1040 -17 308 -39 731 -50 940 -21 405 -26 495 -36 645 -4
67 -3 92 5 85 6 -6 77 -104 160 -218z m705 55 c3 -37 8 -105 11 -152 3 -47 21
-328 40 -625 35 -534 47 -725 125 -1925 22 -338 47 -721 55 -850 8 -129 17
-269 20 -310 3 -41 14 -214 25 -385 11 -170 22 -343 25 -384 l6 -73 -133 7
c-73 4 -135 9 -137 11 -2 2 14 66 37 142 l42 137 -10 145 c-5 80 -50 793 -100
1585 -50 792 -108 1725 -130 2074 -22 349 -40 644 -40 655 0 20 5 21 79 18
l79 -3 6 -67z m-9259 -69 c-3 -43 -17 -271 -30 -508 -26 -434 -50 -849 -60
-1005 -7 -112 -54 -902 -115 -1950 -16 -278 -32 -532 -34 -565 -3 -33 -8 -126
-12 -206 l-7 -146 43 -127 c23 -70 40 -129 37 -132 -5 -5 -260 -24 -265 -20
-1 2 25 441 58 977 33 536 76 1233 95 1549 19 316 37 609 40 650 3 41 23 368
45 725 22 358 42 692 46 743 l6 92 80 0 79 0 -6 -77z m6715 -3513 c449 -21
830 -62 1362 -146 l227 -36 120 -181 c66 -100 119 -182 118 -183 -1 -2 -268
15 -592 36 -608 40 -1564 102 -2230 145 -209 13 -404 26 -433 29 -51 4 -54 3
-110 -45 -31 -27 -95 -69 -142 -93 -84 -44 -218 -91 -228 -81 -3 3 16 37 42
75 249 363 880 526 1866 480z m-3720 -10 c573 -33 914 -135 1134 -340 56 -51
152 -183 138 -188 -16 -5 -164 56 -217 89 -28 17 -69 49 -93 71 l-43 39 -67
-6 c-37 -3 -391 -28 -787 -55 -844 -58 -1125 -77 -1880 -130 -308 -21 -561
-37 -563 -35 -4 3 213 342 232 363 15 15 148 39 516 92 628 90 1196 125 1630
100z"/>
</g>
</symbol>

<symbol id="img_logo" viewBox="0 0 110 28" fill="none">
<path d="M36.9576 21.2032L34.452 22.6504H25.1856V7.53039H34.452L36.9576 8.97759V21.2032ZM28.2096 10.1224V20.0584H33.9336V10.1224H28.2096ZM50.4123 21.3112L47.9067 22.7584H43.3059L40.8003 21.3112V13.1896L43.3059 11.7424H47.9067L50.4123 13.1896V21.3112ZM43.7595 14.2696V20.2312H47.4531V14.2696H43.7595ZM56.9956 14.3776V20.1232H62.3524V22.6504H56.542L54.0364 21.2032V13.2976L56.542 11.8504H62.3524V14.3776H56.9956ZM64.6789 14.3776V11.8504H66.6661V10.036L69.6253 8.32959V11.8504H72.0013V14.3776H69.6253V20.1232H72.0013V22.6504H69.1717L66.6661 21.2032V14.3776H64.6789ZM78.1523 22.6504H75.1931V6.88239H78.1523V12.628L79.6859 11.7424H82.5155L85.0211 13.1896V22.6504H82.0619V14.2696H78.1523V22.6504ZM95.3356 14.3776H91.6204V22.6504H88.6612V11.8504H91.102L91.6204 12.736L93.154 11.8504H95.3356V14.3776ZM97.8895 21.3112V11.8504H100.849V20.2312H104.542V11.8504H107.502V22.7584H105.061L104.542 21.8728L103.009 22.7584H100.395L97.8895 21.3112Z" fill="#525252"/>
<rect x="0.398438" y="3.875" width="17.55" height="20.25" rx="1.35" fill="#262626"/>
<path d="M11.5359 10.625L13.8984 13.5781L11.5359 16.5312" stroke="#FFC117" stroke-width="1.62"/>
<path d="M6.81172 10.625L4.44922 13.5781L6.81172 16.5312" stroke="#FFC117" stroke-width="1.62"/>
</symbol>

<symbol id="img_profileAdmin" viewBox="0 0 32 32" fill="none">
<circle cx="16" cy="16" r="16" fill="#FAFAFA"/>
<circle cx="16" cy="16" r="16" fill="#FAFAFA"/>
<path d="M26.0005 14.5C26.0005 20.299 21.7472 25 16.5005 25C11.2537 25 7.00045 20.299 7.00045 14.5C7.00045 11.7628 5.44809 8.86904 7.00049 7C8.737 4.90929 13.7302 4 16.5005 4C21.7472 4 26.0005 8.70101 26.0005 14.5Z" fill="#737373"/>
<path d="M24.166 14.5C24.166 18.6421 20.8082 22 16.666 22C12.5239 22 9.16602 18.6421 9.16602 14.5C9.16602 10.3579 12.5239 7 16.666 7C20.8082 7 24.166 10.3579 24.166 14.5Z" fill="#E5E5E5"/>
<path fill-rule="evenodd" clip-rule="evenodd" d="M6.00977 28.4984C6.17337 24.8444 8.39782 21.694 11.6136 20.0572C12.9448 21.2644 14.7116 21.9998 16.6501 21.9998C18.5944 21.9998 20.366 21.26 21.6985 20.0464C24.6023 21.5163 26.7019 24.2189 27.2131 27.4134C24.326 30.2501 20.3674 31.9999 16.0001 31.9999C12.2208 31.9999 8.74747 30.6895 6.00977 28.4984Z" fill="#737373"/>
<ellipse cx="14.65" cy="14.75" rx="0.65" ry="0.75" fill="#6E747B"/>
<ellipse cx="18.65" cy="14.75" rx="0.65" ry="0.75" fill="#6E747B"/>
<circle cx="16" cy="16" r="16" fill="#FFC117"/>
<path d="M15.834 25.8333V22.1667C15.834 22.0746 15.9086 22 16.0007 22H17.6945C17.8078 22 17.8905 22.1116 17.8744 22.2237C17.8077 22.6887 17.8716 23.5258 18.5007 24.383C18.7991 24.7896 19.1912 25.1108 19.5915 25.3572C19.7632 25.463 19.659 26 19.4574 26H16.0007C15.9086 26 15.834 25.9254 15.834 25.8333Z" fill="#262626"/>
<path d="M16.334 25.8333V22.1667C16.334 22.0746 16.2594 22 16.1673 22H14.4735C14.3602 22 14.2775 22.1116 14.2935 22.2237C14.3603 22.6887 14.2964 23.5258 13.6673 24.383C13.3689 24.7896 12.9768 25.1108 12.5765 25.3572C12.4048 25.463 12.509 26 12.7106 26H16.1673C16.2594 26 16.334 25.9254 16.334 25.8333Z" fill="#262626"/>
<rect x="4.5" y="8.5" width="23" height="13" rx="1.5" fill="white" stroke="#262626"/>
<path d="M12.0796 13.0948L12.4765 17.7256C12.4898 17.8808 12.6196 18 12.7754 18H19.2246C19.3804 18 19.5102 17.8808 19.5235 17.7256L19.9204 13.0948C19.9453 12.8045 19.5834 12.6527 19.3938 12.8739L18.277 14.1768C18.142 14.3343 17.8917 14.3105 17.7888 14.1304L16.2605 11.4558C16.1453 11.2543 15.8547 11.2543 15.7395 11.4558L14.2112 14.1304C14.1083 14.3105 13.858 14.3343 13.723 14.1768L12.6062 12.8739C12.4166 12.6527 12.0547 12.8045 12.0796 13.0948Z" fill="#262626"/>
</symbol>

<symbol id="img_profileMember" viewBox="0 0 32 32" fill="none">
<circle cx="16" cy="16" r="16" fill="#FAFAFA"/>
<path d="M26.0005 14.5C26.0005 20.299 21.7472 25 16.5005 25C11.2537 25 7.00045 20.299 7.00045 14.5C7.00045 11.7628 5.44809 8.86904 7.00049 7C8.737 4.90929 13.7302 4 16.5005 4C21.7472 4 26.0005 8.70101 26.0005 14.5Z" fill="#737373"/>
<path d="M24.166 14.5C24.166 18.6421 20.8082 22 16.666 22C12.5239 22 9.16602 18.6421 9.16602 14.5C9.16602 10.3579 12.5239 7 16.666 7C20.8082 7 24.166 10.3579 24.166 14.5Z" fill="#E5E5E5"/>
<path fill-rule="evenodd" clip-rule="evenodd" d="M6.00977 28.4984C6.17337 24.8444 8.39782 21.694 11.6136 20.0572C12.9448 21.2644 14.7116 21.9998 16.6501 21.9998C18.5944 21.9998 20.366 21.26 21.6985 20.0464C24.6023 21.5163 26.7019 24.2189 27.2131 27.4134C24.326 30.2501 20.3674 31.9999 16.0001 31.9999C12.2208 31.9999 8.74747 30.6895 6.00977 28.4984Z" fill="#737373"/>
<ellipse cx="14.65" cy="14.75" rx="0.65" ry="0.75" fill="#6E747B"/>
<ellipse cx="18.65" cy="14.75" rx="0.65" ry="0.75" fill="#6E747B"/>
<circle cx="16" cy="16" r="16" fill="#FFC117"/>
<path d="M4.99271 10.9388C5.02552 10.1349 5.68683 9.5 6.49146 9.5H25.5085C26.3132 9.5 26.9745 10.1349 27.0073 10.9388L27.4155 20.9388C27.4502 21.7905 26.7691 22.5 25.9167 22.5H6.0833C5.23087 22.5 4.54978 21.7905 4.58455 20.9388L4.99271 10.9388Z" fill="white" stroke="#262626"/>
<path d="M10 19H22.5" stroke="#262626" stroke-width="1.8" stroke-linecap="round"/>
<rect x="10.3984" y="14.65" width="1.6" height="1.6" rx="0.16" fill="#262626"/>
<rect x="11.998" y="12.25" width="1.6" height="1.6" rx="0.16" fill="#262626"/>
<rect x="15.1992" y="12.25" width="1.6" height="1.6" rx="0.16" fill="#262626"/>
<rect x="18.3984" y="12.25" width="1.6" height="1.6" rx="0.16" fill="#262626"/>
<rect x="16.7988" y="14.6499" width="1.6" height="1.6" rx="0.16" fill="#262626"/>
<rect x="13.5977" y="14.65" width="1.6" height="1.6" rx="0.16" fill="#262626"/>
<rect x="19.998" y="14.6499" width="1.6" height="1.6" rx="0.16" fill="#262626"/>
</symbol>

</svg>