<svg width="110" height="28" viewBox="0 0 110 28" fill="none" xmlns="http://www.w3.org/2000/svg">
<path d="M36.9576 21.2032L34.452 22.6504H25.1856V7.53039H34.452L36.9576 8.97759V21.2032ZM28.2096 10.1224V20.0584H33.9336V10.1224H28.2096ZM50.4123 21.3112L47.9067 22.7584H43.3059L40.8003 21.3112V13.1896L43.3059 11.7424H47.9067L50.4123 13.1896V21.3112ZM43.7595 14.2696V20.2312H47.4531V14.2696H43.7595ZM56.9956 14.3776V20.1232H62.3524V22.6504H56.542L54.0364 21.2032V13.2976L56.542 11.8504H62.3524V14.3776H56.9956ZM64.6789 14.3776V11.8504H66.6661V10.036L69.6253 8.32959V11.8504H72.0013V14.3776H69.6253V20.1232H72.0013V22.6504H69.1717L66.6661 21.2032V14.3776H64.6789ZM78.1523 22.6504H75.1931V6.88239H78.1523V12.628L79.6859 11.7424H82.5155L85.0211 13.1896V22.6504H82.0619V14.2696H78.1523V22.6504ZM95.3356 14.3776H91.6204V22.6504H88.6612V11.8504H91.102L91.6204 12.736L93.154 11.8504H95.3356V14.3776ZM97.8895 21.3112V11.8504H100.849V20.2312H104.542V11.8504H107.502V22.7584H105.061L104.542 21.8728L103.009 22.7584H100.395L97.8895 21.3112Z" fill="#525252"/>
<rect x="0.398438" y="3.875" width="17.55" height="20.25" rx="1.35" fill="#262626"/>
<path d="M11.5359 10.625L13.8984 13.5781L11.5359 16.5312" stroke="#FFC117" stroke-width="1.62"/>
<path d="M6.81172 10.625L4.44922 13.5781L6.81172 16.5312" stroke="#FFC117" stroke-width="1.62"/>
</svg>
