<svg width="320" height="73" viewBox="0 0 320 73" fill="none" xmlns="http://www.w3.org/2000/svg">
<g clip-path="url(#clip0_3_48438)">
<path d="M111.888 54.0409L105.206 57.9001H80.4956V17.5801H105.206L111.888 21.4393V54.0409ZM88.5596 24.4921V50.9881H103.824V24.4921H88.5596ZM147.767 54.3289L141.085 58.1881H128.816L122.135 54.3289V32.6713L128.816 28.8121H141.085L147.767 32.6713V54.3289ZM130.026 35.5513V51.4489H139.876V35.5513H130.026ZM165.322 35.8393V51.1609H179.607V57.9001H164.113L157.431 54.0409V32.9593L164.113 29.1001H179.607V35.8393H165.322ZM185.811 35.8393V29.1001H191.11V24.2617L199.001 19.7113V29.1001H205.337V35.8393H199.001V51.1609H205.337V57.9001H197.792L191.11 54.0409V35.8393H185.811ZM221.74 57.9001H213.849V15.8521H221.74V31.1737L225.83 28.8121H233.375L240.057 32.6713V57.9001H232.166V35.5513H221.74V57.9001ZM267.562 35.8393H257.655V57.9001H249.764V29.1001H256.273L257.655 31.4617L261.745 29.1001H267.562V35.8393ZM274.373 54.3289V29.1001H282.264V51.4489H292.114V29.1001H300.005V58.1881H293.496L292.114 55.8265L288.024 58.1881H281.054L274.373 54.3289Z" fill="#525252"/>
<rect x="14.3984" y="9.50024" width="46.8" height="54" rx="3.6" fill="#262626"/>
<path d="M44.0984 27.5002L50.3984 35.3752L44.0984 43.2502" stroke="#FFC117" stroke-width="4.32"/>
<path d="M31.4992 27.5002L25.1992 35.3752L31.4992 43.2502" stroke="#FFC117" stroke-width="4.32"/>
</g>
<defs>
<clipPath id="clip0_3_48438">
<rect width="320" height="72" fill="white" transform="translate(0 0.5)"/>
</clipPath>
</defs>
</svg>
