<svg width="80" height="18" viewBox="0 0 80 18" fill="none" xmlns="http://www.w3.org/2000/svg">
<g clip-path="url(#clip0_3_47650)">
<path d="M27.9724 14.1352L26.302 15.1H20.1244V5.01997H26.302L27.9724 5.98477V14.1352ZM22.1404 6.74797V13.372H25.9564V6.74797H22.1404ZM36.9422 14.2072L35.2718 15.172H32.2046L30.5342 14.2072V8.79277L32.2046 7.82798H35.2718L36.9422 8.79277V14.2072ZM32.507 9.51278V13.4872H34.9694V9.51278H32.507ZM41.3311 9.58478V13.4152H44.9023V15.1H41.0287L39.3583 14.1352V8.86477L41.0287 7.89998H44.9023V9.58478H41.3311ZM46.4532 9.58478V7.89998H47.778V6.69037L49.7508 5.55277V7.89998H51.3348V9.58478H49.7508V13.4152H51.3348V15.1H49.4484L47.778 14.1352V9.58478H46.4532ZM55.4355 15.1H53.4627V4.58797H55.4355V8.41838L56.4579 7.82798H58.3443L60.0147 8.79277V15.1H58.0419V9.51278H55.4355V15.1ZM66.8911 9.58478H64.4143V15.1H62.4415V7.89998H64.0687L64.4143 8.49038L65.4367 7.89998H66.8911V9.58478ZM68.5937 14.2072V7.89998H70.5665V13.4872H73.0289V7.89998H75.0017V15.172H73.3745L73.0289 14.5816L72.0065 15.172H70.2641L68.5937 14.2072Z" fill="#525252"/>
<rect x="3.60156" y="2.25" width="11.7" height="13.5" rx="0.9" fill="#262626"/>
<path d="M11.0266 6.75L12.6016 8.71875L11.0266 10.6875" stroke="#FFC117" stroke-width="1.08"/>
<path d="M7.87578 6.75L6.30078 8.71875L7.87578 10.6875" stroke="#FFC117" stroke-width="1.08"/>
</g>
<defs>
<clipPath id="clip0_3_47650">
<rect width="80" height="18" fill="white"/>
</clipPath>
</defs>
</svg>
