<svg width="241" height="55" viewBox="0 0 241 55" fill="none" xmlns="http://www.w3.org/2000/svg">
<g clip-path="url(#clip0_3_48451)">
<path d="M84.4162 40.9056L79.405 43.8H60.8722V13.56H79.405L84.4162 16.4544V40.9056ZM66.9202 18.744V38.616H78.3682V18.744H66.9202ZM111.326 41.1216L106.314 44.016H97.1127L92.1015 41.1216V24.8784L97.1127 21.984H106.314L111.326 24.8784V41.1216ZM98.0199 27.0384V38.9616H105.407V27.0384H98.0199ZM124.492 27.2544V38.7456H135.206V43.8H123.585L118.574 40.9056V25.0944L123.585 22.2H135.206V27.2544H124.492ZM139.859 27.2544V22.2H143.833V18.5712L149.751 15.1584V22.2H154.503V27.2544H149.751V38.7456H154.503V43.8H148.844L143.833 40.9056V27.2544H139.859ZM166.805 43.8H160.887V12.264H166.805V23.7552L169.873 21.984H175.532L180.543 24.8784V43.8H174.625V27.0384H166.805V43.8ZM201.172 27.2544H193.742V43.8H187.823V22.2H192.705L193.742 23.9712L196.809 22.2H201.172V27.2544ZM206.28 41.1216V22.2H212.198V38.9616H219.586V22.2H225.504V44.016H220.622L219.586 42.2448L216.518 44.016H211.291L206.28 41.1216Z" fill="#525252"/>
<rect x="11.2998" y="7.25" width="35.1" height="40.5" rx="2.7" fill="#262626"/>
<path d="M33.5748 20.75L38.2998 26.6562L33.5748 32.5625" stroke="#FFC117" stroke-width="3.24"/>
<path d="M24.1244 20.75L19.3994 26.6562L24.1244 32.5625" stroke="#FFC117" stroke-width="3.24"/>
</g>
<defs>
<clipPath id="clip0_3_48451">
<rect width="240" height="54" fill="white" transform="translate(0.5 0.5)"/>
</clipPath>
</defs>
</svg>
