<svg width="120" height="28" viewBox="0 0 120 28" fill="none" xmlns="http://www.w3.org/2000/svg">
<g clip-path="url(#clip0_3_47579)">
<path d="M41.9576 21.2027L39.452 22.6499H30.1856V7.5299H39.452L41.9576 8.9771V21.2027ZM33.2096 10.1219V20.0579H38.9336V10.1219H33.2096ZM55.4123 21.3107L52.9067 22.7579H48.3059L45.8003 21.3107V13.1891L48.3059 11.7419H52.9067L55.4123 13.1891V21.3107ZM48.7595 14.2691V20.2307H52.4531V14.2691H48.7595ZM61.9956 14.3771V20.1227H67.3524V22.6499H61.542L59.0364 21.2027V13.2971L61.542 11.8499H67.3524V14.3771H61.9956ZM69.6789 14.3771V11.8499H71.6661V10.0355L74.6253 8.3291V11.8499H77.0013V14.3771H74.6253V20.1227H77.0013V22.6499H74.1717L71.6661 21.2027V14.3771H69.6789ZM83.1523 22.6499H80.1931V6.8819H83.1523V12.6275L84.6859 11.7419H87.5155L90.0211 13.1891V22.6499H87.0619V14.2691H83.1523V22.6499ZM100.336 14.3771H96.6204V22.6499H93.6612V11.8499H96.102L96.6204 12.7355L98.154 11.8499H100.336V14.3771ZM102.89 21.3107V11.8499H105.849V20.2307H109.542V11.8499H112.502V22.7579H110.061L109.542 21.8723L108.009 22.7579H105.395L102.89 21.3107Z" fill="#525252"/>
<rect x="5.39844" y="3.87488" width="17.55" height="20.25" rx="1.35" fill="#262626"/>
<path d="M16.5359 10.6249L18.8984 13.578L16.5359 16.5311" stroke="#FFC117" stroke-width="1.62"/>
<path d="M11.8117 10.6249L9.44922 13.578L11.8117 16.5311" stroke="#FFC117" stroke-width="1.62"/>
</g>
<defs>
<clipPath id="clip0_3_47579">
<rect width="120" height="27" fill="white" transform="translate(0 0.5)"/>
</clipPath>
</defs>
</svg>
