<svg width="32" height="32" viewBox="0 0 32 32" fill="none" xmlns="http://www.w3.org/2000/svg">
<circle cx="16" cy="16" r="16" fill="#FAFAFA"/>
<path d="M26.0005 14.5C26.0005 20.299 21.7472 25 16.5005 25C11.2537 25 7.00045 20.299 7.00045 14.5C7.00045 11.7628 5.44809 8.86904 7.00049 7C8.737 4.90929 13.7302 4 16.5005 4C21.7472 4 26.0005 8.70101 26.0005 14.5Z" fill="#737373"/>
<path d="M24.166 14.5C24.166 18.6421 20.8082 22 16.666 22C12.5239 22 9.16602 18.6421 9.16602 14.5C9.16602 10.3579 12.5239 7 16.666 7C20.8082 7 24.166 10.3579 24.166 14.5Z" fill="#E5E5E5"/>
<path fill-rule="evenodd" clip-rule="evenodd" d="M6.00977 28.4984C6.17337 24.8444 8.39782 21.694 11.6136 20.0572C12.9448 21.2644 14.7116 21.9998 16.6501 21.9998C18.5944 21.9998 20.366 21.26 21.6985 20.0464C24.6023 21.5163 26.7019 24.2189 27.2131 27.4134C24.326 30.2501 20.3674 31.9999 16.0001 31.9999C12.2208 31.9999 8.74747 30.6895 6.00977 28.4984Z" fill="#737373"/>
<ellipse cx="14.65" cy="14.75" rx="0.65" ry="0.75" fill="#6E747B"/>
<ellipse cx="18.65" cy="14.75" rx="0.65" ry="0.75" fill="#6E747B"/>
<circle cx="16" cy="16" r="16" fill="#FFC117"/>
<path d="M4.99271 10.9388C5.02552 10.1349 5.68683 9.5 6.49146 9.5H25.5085C26.3132 9.5 26.9745 10.1349 27.0073 10.9388L27.4155 20.9388C27.4502 21.7905 26.7691 22.5 25.9167 22.5H6.0833C5.23087 22.5 4.54978 21.7905 4.58455 20.9388L4.99271 10.9388Z" fill="white" stroke="#262626"/>
<path d="M10 19H22.5" stroke="#262626" stroke-width="1.8" stroke-linecap="round"/>
<rect x="10.3984" y="14.65" width="1.6" height="1.6" rx="0.16" fill="#262626"/>
<rect x="11.998" y="12.25" width="1.6" height="1.6" rx="0.16" fill="#262626"/>
<rect x="15.1992" y="12.25" width="1.6" height="1.6" rx="0.16" fill="#262626"/>
<rect x="18.3984" y="12.25" width="1.6" height="1.6" rx="0.16" fill="#262626"/>
<rect x="16.7988" y="14.6499" width="1.6" height="1.6" rx="0.16" fill="#262626"/>
<rect x="13.5977" y="14.65" width="1.6" height="1.6" rx="0.16" fill="#262626"/>
<rect x="19.998" y="14.6499" width="1.6" height="1.6" rx="0.16" fill="#262626"/>
</svg>
