<svg width="18" height="18" viewBox="0 0 18 18" fill="none" xmlns="http://www.w3.org/2000/svg">
<path d="M17.27 9C17.2698 9.19884 17.1907 9.38948 17.05 9.53L10.05 16.53C9.85708 16.7176 9.57874 16.788 9.31985 16.7147C9.06095 16.6414 8.86082 16.4355 8.79485 16.1747C8.72887 15.9138 8.80708 15.6376 9 15.45L15.45 9L9 2.55C8.79935 2.36303 8.71675 2.08144 8.78461 1.81571C8.85248 1.54998 9.05998 1.34248 9.32571 1.27461C9.59144 1.20675 9.87303 1.28934 10.06 1.49L17.06 8.49C17.1922 8.62715 17.2673 8.8095 17.27 9Z" fill="white"/>
<path d="M17.26 9C17.2546 9.41196 16.922 9.74461 16.51 9.75L1.51 9.75C1.24205 9.75 0.994455 9.60705 0.860481 9.375C0.726506 9.14295 0.726506 8.85705 0.860481 8.625C0.994455 8.39295 1.24205 8.25 1.51 8.25L16.51 8.25C16.922 8.25538 17.2546 8.58803 17.26 9Z" fill="white"/>
<path d="M18 9C17.9996 9.39769 17.8414 9.77896 17.56 10.06L10.56 17.06C9.97182 17.6454 9.02042 17.6432 8.435 17.055C7.84958 16.4668 7.85182 15.5154 8.44 14.93L14.39 9L8.46 3.08C7.87182 2.49458 7.86958 1.54318 8.455 0.954998C9.04042 0.366815 9.99182 0.364576 10.58 0.949998L17.58 7.95C17.8516 8.2318 18.0023 8.60861 18 9Z" fill="white"/>
<path d="M18 9C18 9.82842 17.3284 10.5 16.5 10.5L1.5 10.5C0.671573 10.5 -3.3523e-07 9.82843 -3.71442e-07 9C-4.07654e-07 8.17157 0.671572 7.5 1.5 7.5L16.5 7.5C17.3284 7.5 18 8.17157 18 9Z" fill="white"/>
</svg>
