<svg width="51" height="21" viewBox="0 0 51 21" fill="none" xmlns="http://www.w3.org/2000/svg">
<rect width="51" height="21" rx="10.5" fill="#262626"/>
<path d="M21.0566 15.1367C18.7598 15.1367 17.4199 13.291 17.4199 10.0508C17.4199 6.83789 18.7871 4.96484 21.0566 4.96484C23.3262 4.96484 24.6934 6.83789 24.6934 10.0508C24.6934 13.291 23.3398 15.1367 21.0566 15.1367ZM21.0566 13.8379C22.3965 13.8379 23.1895 12.5254 23.1895 10.0508C23.1895 7.58984 22.3828 6.23633 21.0566 6.23633C19.7305 6.23633 18.9238 7.58984 18.9238 10.0508C18.9238 12.5254 19.7168 13.8379 21.0566 13.8379ZM26.0332 13.0723V11.8555L30.4082 5.10156H32.2676V11.8008H33.6211V13.0723H32.2676V15H30.8457V13.0723H26.0332ZM27.6191 11.8008H30.8457V6.89258H30.7363L27.6191 11.7188V11.8008Z" fill="#FFC117"/>
</svg>
