<svg width="51" height="21" viewBox="0 0 51 21" fill="none" xmlns="http://www.w3.org/2000/svg">
<rect width="51" height="21" rx="10.5" fill="#262626"/>
<path d="M21.2549 15.1367C18.958 15.1367 17.6182 13.291 17.6182 10.0508C17.6182 6.83789 18.9854 4.96484 21.2549 4.96484C23.5244 4.96484 24.8916 6.83789 24.8916 10.0508C24.8916 13.291 23.5381 15.1367 21.2549 15.1367ZM21.2549 13.8379C22.5947 13.8379 23.3877 12.5254 23.3877 10.0508C23.3877 7.58984 22.5811 6.23633 21.2549 6.23633C19.9287 6.23633 19.1221 7.58984 19.1221 10.0508C19.1221 12.5254 19.915 13.8379 21.2549 13.8379ZM29.8135 15.1367C27.9404 15.1367 26.5322 13.9883 26.4639 12.416H27.9268C28.0088 13.2637 28.8154 13.8789 29.8135 13.8789C31.0166 13.8789 31.8779 13.0039 31.8779 11.8281C31.8779 10.625 30.9893 9.75 29.7451 9.73633C28.9521 9.73633 28.3506 9.99609 28.0088 10.6113H26.5869L27.2295 5.10156H32.835V6.38672H28.4736L28.1455 9.16211H28.2412C28.6514 8.76562 29.3486 8.49219 30.1006 8.49219C31.96 8.49219 33.3408 9.87305 33.3408 11.7871C33.3408 13.7422 31.8779 15.1367 29.8135 15.1367Z" fill="#FFC117"/>
</svg>
