<svg width="24" height="24" viewBox="0 0 24 24" fill="none" xmlns="http://www.w3.org/2000/svg">
<g clip-path="url(#clip0_1007_6635)">
<path fill-rule="evenodd" clip-rule="evenodd" d="M9.41236 3.51556C9.60276 3.95075 9.40431 4.45788 8.96913 4.64827L1.8393 7.76757V20.1893L7.78285 17.4156C8.2133 17.2147 8.72509 17.4008 8.92596 17.8313C9.12684 18.2617 8.94073 18.7735 8.51029 18.9744L1.34294 22.3191C1.07656 22.4435 0.765149 22.4231 0.517208 22.2652C0.269266 22.1073 0.119141 21.8337 0.119141 21.5398V7.20506C0.119141 6.86335 0.321427 6.55405 0.634485 6.41709L8.27966 3.07233C8.71484 2.88194 9.22197 3.08038 9.41236 3.51556Z" fill="#F24744"/>
<circle cx="3.84627" cy="13.4171" r="0.955646" fill="#F24744"/>
<path fill-rule="evenodd" clip-rule="evenodd" d="M8.62375 3C8.14874 3 7.76367 3.38507 7.76367 3.86008V18.1948C7.76367 18.6698 8.14874 19.0549 8.62375 19.0549H17.2246C17.6996 19.0549 18.0847 18.6698 18.0847 18.1948V13H16.3645V17.3347H9.48384V4.72016H16.3645V9H18.0847V3.86008C18.0847 3.38507 17.6996 3 17.2246 3H8.62375Z" fill="#F24744"/>
<path d="M16 10.8226H23.1673M23.1673 10.8226L19.3448 7M23.1673 10.8226L19.3448 14.6452" stroke="#F24744" stroke-width="1.72016" stroke-linecap="round" stroke-linejoin="round"/>
</g>
<defs>
<clipPath id="clip0_1007_6635">
<rect width="24" height="24" fill="white"/>
</clipPath>
</defs>
</svg>
