<svg width="16" height="16" viewBox="0 0 16 16" fill="none" xmlns="http://www.w3.org/2000/svg">
<circle cx="11.334" cy="6" r="2" fill="#262626"/>
<circle cx="4.66602" cy="6" r="2" fill="#262626"/>
<path fill-rule="evenodd" clip-rule="evenodd" d="M11.7116 11.9997H13.2626C13.657 11.9997 13.9595 11.6598 13.8637 11.2772C13.6182 10.2969 12.9646 8.66638 11.3326 8.66638C10.7419 8.66638 10.2794 8.88003 9.91797 9.19914C10.9231 9.85128 11.4429 10.9932 11.7116 11.9997Z" fill="#262626"/>
<path fill-rule="evenodd" clip-rule="evenodd" d="M6.08074 9.19913C5.71935 8.88002 5.25682 8.66638 4.6661 8.66638C3.03415 8.66638 2.38054 10.2969 2.13505 11.2772C2.03924 11.6598 2.34167 11.9997 2.73608 11.9997H4.28712C4.55585 10.9932 5.07557 9.85127 6.08074 9.19913Z" fill="#262626"/>
<circle cx="8.00065" cy="6.00004" r="2.66667" fill="white"/>
<path d="M7.99935 9.33337C10.4718 9.33337 11.1103 11.534 11.2753 12.6708C11.3281 13.0351 11.0342 13.3334 10.666 13.3334H5.33268C4.96449 13.3334 4.67058 13.0351 4.72344 12.6708C4.88836 11.534 5.52691 9.33337 7.99935 9.33337Z" fill="white"/>
</svg>
