<svg width="51" height="21" viewBox="0 0 51 21" fill="none" xmlns="http://www.w3.org/2000/svg">
<rect width="51" height="21" rx="10.5" fill="#262626"/>
<path d="M21.1318 15.1367C18.835 15.1367 17.4951 13.291 17.4951 10.0508C17.4951 6.83789 18.8623 4.96484 21.1318 4.96484C23.4014 4.96484 24.7686 6.83789 24.7686 10.0508C24.7686 13.291 23.415 15.1367 21.1318 15.1367ZM21.1318 13.8379C22.4717 13.8379 23.2646 12.5254 23.2646 10.0508C23.2646 7.58984 22.458 6.23633 21.1318 6.23633C19.8057 6.23633 18.999 7.58984 18.999 10.0508C18.999 12.5254 19.792 13.8379 21.1318 13.8379ZM29.8408 15.1367C27.79 15.1367 26.3271 14.0293 26.2725 12.416H27.8037C27.8584 13.291 28.7197 13.8379 29.8271 13.8379C31.0166 13.8379 31.8916 13.1816 31.8916 12.2246C31.8916 11.2539 31.0713 10.543 29.6631 10.543H28.8154V9.3125H29.6631C30.7842 9.3125 31.5771 8.68359 31.5771 7.74023C31.5771 6.83789 30.9072 6.22266 29.8545 6.22266C28.8564 6.22266 27.9814 6.76953 27.9404 7.67188H26.4912C26.5322 6.05859 28.0225 4.96484 29.8682 4.96484C31.8096 4.96484 33.04 6.19531 33.0264 7.6582C33.04 8.7793 32.3428 9.59961 31.2764 9.85938V9.92773C32.6299 10.1191 33.4092 11.0215 33.4092 12.2793C33.4092 13.9336 31.8916 15.1367 29.8408 15.1367Z" fill="#FFC117"/>
</svg>
